<?xml version="1.0" standalone="no"?>
<!DOCTYPE svg PUBLIC "-//W3C//DTD SVG 1.1//EN" "http://www.w3.org/Graphics/SVG/1.1/DTD/svg11.dtd" >
<svg xmlns="http://www.w3.org/2000/svg">
<metadata>
Created by FontForge 20120731 at Mon Oct  6 14:13:29 2014
 By Ads
</metadata>
<defs>
<font id="iconfont" horiz-adv-x="1024" >
  <font-face 
    font-family="iconfont"
    font-weight="500"
    font-stretch="normal"
    units-per-em="1024"
    panose-1="2 0 6 3 0 0 0 0 0 0"
    ascent="812"
    descent="-212"
    x-height="792"
    bbox="28.6296 -183 994.63 792"
    underline-thickness="50"
    underline-position="-100"
    unicode-range="U+0078-E6F0"
  />
<missing-glyph horiz-adv-x="374" 
d="M34 0v682h272v-682h-272zM68 34h204v614h-204v-614z" />
    <glyph glyph-name=".notdef" horiz-adv-x="374" 
d="M34 0v682h272v-682h-272zM68 34h204v614h-204v-614z" />
    <glyph glyph-name=".null" horiz-adv-x="0" 
 />
    <glyph glyph-name="nonmarkingreturn" horiz-adv-x="341" 
 />
    <glyph glyph-name="x" unicode="x" horiz-adv-x="1001" 
d="M281 543q-27 -1 -53 -1h-83q-18 0 -36.5 -6t-32.5 -18.5t-23 -32t-9 -45.5v-76h912v41q0 16 -0.5 30t-0.5 18q0 13 -5 29t-17 29.5t-31.5 22.5t-49.5 9h-133v-97h-438v97zM955 310v-52q0 -23 0.5 -52t0.5 -58t-10.5 -47.5t-26 -30t-33 -16t-31.5 -4.5q-14 -1 -29.5 -0.5
t-29.5 0.5h-32l-45 128h-439l-44 -128h-29h-34q-20 0 -45 1q-25 0 -41 9.5t-25.5 23t-13.5 29.5t-4 30v167h911zM163 247q-12 0 -21 -8.5t-9 -21.5t9 -21.5t21 -8.5q13 0 22 8.5t9 21.5t-9 21.5t-22 8.5zM316 123q-8 -26 -14 -48q-5 -19 -10.5 -37t-7.5 -25t-3 -15t1 -14.5
t9.5 -10.5t21.5 -4h37h67h81h80h64h36q23 0 34 12t2 38q-5 13 -9.5 30.5t-9.5 34.5q-5 19 -11 39h-368zM336 498v228q0 11 2.5 23t10 21.5t20.5 15.5t34 6h188q31 0 51.5 -14.5t20.5 -52.5v-227h-327z" />
    <glyph glyph-name="uniE644" unicode="&#xe644;" 
d="M96 -84q-13 0 -22.5 9.5t-9.5 22.5v448q0 13 9.5 22.5t22.5 9.5t22.5 -9.5t9.5 -22.5v-448q0 -13 -9.5 -22.5t-22.5 -9.5zM864 428h-189q12 28 19.5 83t0.5 107q-2 18 -7.5 34t-13.5 30t-19 25.5t-24.5 20t-28.5 13.5q-19 7 -38 7t-35.5 -5.5t-26.5 -16.5
q-12 -12 -22 -35t-15 -41t-14 -52l-5 -18l-4 -16q-2 -10 -4 -16.5t-4.5 -14.5t-5 -13.5t-5.5 -10.5q-14 -23 -40 -43t-41 -27t-28 -11h-90q-13 0 -22.5 -9.5t-9.5 -22.5v-448q0 -13 9.5 -22.5t22.5 -9.5h87q22 -12 49 -24t83.5 -26t108.5 -14h216q33 0 68.5 13t51 38.5
t44 207.5t28.5 220q0 39 -31 68t-65 29zM833 -63q-4 -7 -24.5 -14t-40.5 -7h-216q-18 0 -37 2t-36 6t-33.5 8.5t-30 10t-26 11t-22 10t-16.5 8.5t-11 6l-4 2h-16h-64v384h64q2 0 6 1q1 0 1 1h1h1h2h1l1 1q12 4 26 10.5t37 19.5t45.5 34t36.5 46q16 26 35 105q21 85 34 99
q3 3 12.5 3t24.5 -4q16 -7 30 -23t18 -47q5 -46 -4 -98.5t-16 -72t-12 -30.5q-7 -16 2 -31q9 -14 27 -14h235q5 0 12.5 -4.5t13.5 -12.5t6 -16q0 -53 -40 -286q-16 -93 -23 -108z" />
    <glyph glyph-name="uniE645" unicode="&#xe645;" 
d="M888 514q-6 6 -14.5 8t-16.5 -0.5t-14 -9.5l-427 -454l-233 230q-10 9 -23 9t-22.5 -9.5t-9.5 -23t10 -22.5l256 -253h1q1 -1 7 -4q0 -1 1 -1.5t2 -1.5q6 -2 12 -2q7 1 12 3q1 0 2 1t2 1q5 3 7 5v0l449 479q9 9 9 22.5t-10 22.5z" />
    <glyph glyph-name="uniE646" unicode="&#xe646;" 
d="M557 299l266 264q9 9 9 22t-9 23q-6 6 -14.5 8.5t-16.5 0t-15 -8.5l-265 -264l-263 264q-9 9 -22.5 9t-23 -9t-9.5 -22.5t10 -22.5l263 -264l-265 -264q-10 -9 -10 -22.5t9.5 -22.5t22.5 -9t23 9l265 264l265 -267q10 -9 23 -9q3 0 6 0.5t6 1.5t5.5 3t5.5 4q9 10 9 23
t-9 23z" />
    <glyph glyph-name="uniE649" unicode="&#xe649;" 
d="M800 -148h-576q-40 0 -68 28t-28 68v640q0 40 28 68t68 28h448q13 0 22.5 -9.5t9.5 -22.5t-9.5 -22.5t-22.5 -9.5h-448q-13 0 -22.5 -9.5t-9.5 -22.5v-640q0 -13 9.5 -22.5t22.5 -9.5h576q13 0 22.5 9.5t9.5 22.5v512q0 13 9.5 22.5t22.5 9.5t22.5 -9.5t9.5 -22.5v-512
q0 -40 -28 -68t-68 -28zM612 364q-13 0 -23 9q-6 7 -8 15t0 16t8 15l318 318q10 9 23 9t23 -9q17 -18 5 -39q-3 -4 -5 -7l-318 -318q-10 -9 -23 -9zM480 364h-192q-13 0 -22.5 9.5t-9.5 22.5t9.5 22.5t22.5 9.5h192q13 0 22.5 -9.5t9.5 -22.5t-9.5 -22.5t-22.5 -9.5z
M672 172h-384q-13 0 -22.5 9.5t-9.5 22.5t9.5 22.5t22.5 9.5h384q13 0 22.5 -9.5t9.5 -22.5t-9.5 -22.5t-22.5 -9.5z" />
    <glyph glyph-name="uniE64A" unicode="&#xe64a;" 
d="M511 -148q-91 0 -174 35.5t-143 95.5t-95.5 143t-35.5 174t35.5 174t95.5 143t143 95.5t174 35.5t174 -35.5t143 -95.5t95.5 -143t35.5 -174q0 -46 -9 -90.5t-26 -84t-41.5 -76t-55 -66.5t-66.5 -54.5t-76 -41.5t-84 -26t-90 -9zM511 684q-104 0 -192.5 -51.5t-140 -140
t-51.5 -192.5t51.5 -192.5t140 -140t192.5 -51.5t192.5 51.5t140 140t51.5 192.5q0 39 -8 77t-22.5 72t-35.5 65.5t-46.5 57t-57 46.5t-65.5 35.5t-72 22.5t-77 8zM512 39q-67 0 -126.5 29t-100.5 81q-8 11 -6.5 24t12.5 21q2 2 5.5 4t7 2.5t7 0.5t7 -1t6.5 -2.5t6 -3.5
t5 -5q33 -41 79 -63.5t98 -22.5q53 0 99.5 22.5t78.5 64.5q8 11 21 12.5t23.5 -6.5t12.5 -21t-7 -24q-27 -35 -63 -60.5t-78 -38.5t-87 -13zM368 297q-13 0 -24 6.5t-17.5 17.5t-6.5 24v64q0 20 14 34t34 14q13 0 24 -6.5t17.5 -17.5t6.5 -24v-64q0 -13 -6.5 -24
t-17.5 -17.5t-24 -6.5zM656 297q-20 0 -34 14t-14 34v64q0 8 2.5 15t7 13t10.5 10.5t13 7t15 2.5q20 0 34 -14t14 -34v-64q0 -20 -14 -34t-34 -14z" />
    <glyph glyph-name="uniE64B" unicode="&#xe64b;" 
d="M957 408q-2 5 -5.5 9.5t-8.5 7.5t-11 4l-271 42l-120 259q-9 18 -29 18q-21 0 -29 -18l-122 -258l-271 -41q-19 -3 -25.5 -21.5t7.5 -32.5l196 -202l-47 -285q-3 -20 13.5 -31.5t33.5 -1.5l242 133l242 -134q7 -4 15 -4h1q13 0 22.5 9.5t9.5 22.5q0 6 -2 11l-45 279
l197 201q6 7 8 15.5t-1 17.5z" />
    <glyph glyph-name="uniE64C" unicode="&#xe64c;" 
d="M767 -148q-9 1 -15 4l-242 134l-242 -133l-4 -2q-2 -1 -4 -1.5t-4 -0.5h-5q-2 0 -4 0.5t-4.5 1t-4.5 2t-3 2.5q-17 11 -14 31l47 285l-196 202q-14 14 -8 32q2 6 6 10.5t9 7.5t10 4l156 26q13 3 23.5 -5t13 -21t-5.5 -23.5t-21 -13.5l-95 -16l166 -170q11 -12 8 -28
l-39 -235l200 110q15 8 31 -1l199 -110l-38 236q-3 16 9 27l164 169l-225 34q-2 1 -4.5 1.5t-4.5 1.5l-4 2q-2 1 -3.5 2.5t-3 3.5t-2.5 3.5t-2 3.5l-100 213l-100 -212q-5 -12 -17.5 -16.5t-24.5 1t-16.5 18t0.5 24.5l130 274q8 18 29 18q9 0 17 -5t12 -13l120 -259l271 -42
q19 -3 25 -21.5t-7 -32.5l-197 -201l46 -285q1 -9 -2.5 -17.5t-11.5 -13.5q-8 -6 -18 -6z" />
    <glyph glyph-name="uniE64F" unicode="&#xe64f;" 
d="M923 364zM512 -151q-148 0 -268 89q-71 54 -116.5 130t-58 165t9.5 174.5t75 157.5q73 98 183 144.5t228.5 32.5t216.5 -87q62 -46 105 -111t61 -141q3 -12 -4 -23.5t-19 -14.5q-9 -2 -17 0.5t-14 8.5t-8 14q-11 43 -31 82.5t-48 73.5t-64 60q-83 63 -184.5 74.5
t-196 -28.5t-156.5 -123q-46 -62 -65 -135.5t-8 -149.5t49.5 -141t100.5 -112q50 -37 108.5 -56.5t117.5 -19.5t116 16.5t107.5 52t87.5 85.5q51 67 68 147q3 13 14 20.5t24 4.5t20 -14t5 -24q-7 -31 -18 -61t-26.5 -58t-34.5 -54q-54 -72 -130 -117t-165 -58
q-16 -2 -32.5 -3t-32.5 -1z" />
    <glyph glyph-name="uniE650" unicode="&#xe650;" 
d="M512 748q-146 0 -249 -103t-103 -249q0 -53 34 -127.5t76.5 -136.5t98 -130.5t80 -95.5t40.5 -44q9 -10 23 -10h1q14 0 23 11l109 125q219 268 219 408q0 146 -103 249t-249 103zM512 236q-66 0 -113 47t-47 113t47 113t113 47t113 -47t47 -113t-47 -113t-113 -47z" />
    <glyph glyph-name="uniE651" unicode="&#xe651;" 
d="M512 204q-79 0 -135.5 56.5t-56.5 135.5t56.5 135.5t135.5 56.5t135.5 -56.5t56.5 -135.5t-56.5 -135.5t-135.5 -56.5zM512 524q-53 0 -90.5 -37.5t-37.5 -90.5t37.5 -90.5t90.5 -37.5t90.5 37.5t37.5 90.5t-37.5 90.5t-90.5 37.5zM512 -148q-13 0 -22 9q-10 9 -10 22.5
t9 22.5q30 32 66 73.5t80.5 99.5t80 112.5t60 110.5t24.5 94q0 119 -84.5 203.5t-203.5 84.5t-203.5 -84.5t-84.5 -203.5q0 -57 52.5 -151.5t151.5 -215.5q9 -11 7.5 -24t-12 -21.5t-23.5 -7t-21 11.5q-219 268 -219 408q0 146 103 249t249 103t249 -103t103 -249
q0 -53 -34 -127.5t-76.5 -136.5t-98 -130.5t-80 -95.5t-40.5 -44q-9 -10 -23 -10z" />
    <glyph glyph-name="uniE652" unicode="&#xe652;" 
d="M369 -18v-1q-2 0 -4.5 -0.5t-4.5 -0.5h-2h-3h-3q-52 0 -89 36.5t-38 88.5q-2 53 34 91q37 39 89 40h2h2q20 0 38.5 -6t35.5 -18q46 -16 92 45t19 95q-9 7 -18 17q-2 1 -3 3q-31 35 -33 80q-1 53 35 91t89 40h1h3q44 0 78.5 -28t44.5 -71q4 -14 7 -30.5t2 -50t-9 -68.5
t-31 -83t-59 -96q-41 -55 -85 -93t-81.5 -54t-62.5 -21.5t-46 -5.5zM365 46q7 0 16 1t26.5 4.5t37.5 13.5t43.5 25.5t51 42t53.5 61.5q38 52 59.5 101.5t24 85.5t1 54.5t-5.5 31.5q-2 9 -6 17t-10 14.5t-13 11t-15.5 7t-17.5 2.5q-27 -1 -45 -20t-18 -45q1 -23 17 -40v-1
q3 -3 6 -5.5t6 -4.5q4 -3 6 -6q5 -4 8.5 -9.5t8 -14t7 -17.5t4 -20.5t0 -24.5t-5.5 -27.5t-13 -31t-22 -33.5q-55 -74 -124 -74q-24 0 -47 9q-4 2 -8 5q-17 14 -38 14q-28 -1 -46 -20t-17 -45q0 -13 5 -24.5t13.5 -19.5t20 -13t24.5 -5q1 1 3 1q6 0 10 -1zM512 -151
q-91 0 -174 35q-12 5 -17 17t0 24.5t17.5 17.5t24.5 0q71 -30 149 -30q104 0 192.5 51.5t140 140t51.5 192.5q0 39 -8 77t-22.5 72t-35.5 65t-46.5 57t-57 47t-65.5 35.5t-72 22.5t-77 8q-104 0 -192.5 -51.5t-140 -140t-51.5 -192.5q0 -111 59 -204q4 -8 4.5 -16.5
t-3.5 -16t-11 -11.5q-12 -7 -25 -4t-20 14q-68 109 -68 238q0 73 22.5 141t64 123t96.5 96.5t123.5 64.5t141.5 23q91 0 174 -35.5t143 -95.5t95.5 -143t35.5 -174t-35.5 -174t-95.5 -143t-143 -95.5t-174 -35.5z" />
    <glyph glyph-name="uniE656" unicode="&#xe656;" 
d="M512 746q-91 0 -173.5 -35.5t-142 -95t-95 -142t-35.5 -173.5q0 -61 16 -118.5t45 -106.5t70 -90t90 -70t106.5 -45t118.5 -16q91 0 173.5 35.5t142 95t95 142t35.5 173.5t-35.5 173.5t-95 142t-142 95t-173.5 35.5zM727 374l-256 -259v-1q-2 -2 -6 -4q-1 0 -1.5 -0.5
t-1.5 -1t-2 -1.5q-6 -2 -12 -2t-12 2l-2 2q-1 0 -1 1q-6 3 -7 4v1h-1l-126 129q-6 6 -8 14.5t0.5 16.5t8.5 15q9 9 22.5 8.5t22.5 -9.5l103 -106l234 236q9 9 22.5 9t22.5 -9t9.5 -22.5t-9.5 -22.5z" />
    <glyph glyph-name="uniE657" unicode="&#xe657;" 
d="M512 -148q-185 0 -316.5 131.5t-131.5 316.5t131.5 316.5t316.5 131.5t316.5 -131.5t131.5 -316.5t-131.5 -316.5t-316.5 -131.5zM512 684q-104 0 -192.5 -51.5t-140 -140t-51.5 -192.5t51.5 -192.5t140 -140t192.5 -51.5t192.5 51.5t140 140t51.5 192.5t-51.5 192.5
t-140 140t-192.5 51.5zM727 418.5q-9 9.5 -22.5 9.5t-22.5 -9l-234 -236l-103 106q-9 9 -22.5 9.5t-23 -9t-9.5 -22.5t9 -23l126 -129h1v-1q1 -1 5 -4h2l1 -1l2 -2q6 -2 12 -2q7 0 12 2q1 1 2 1.5t1.5 1t1.5 0.5q4 2 6 4v1l256 259q10 9 9.5 22t-9.5 22.5z" />
    <glyph glyph-name="uniE658" unicode="&#xe658;" 
d="M512 748q-185 0 -316.5 -131.5t-131.5 -316.5t131.5 -316.5t316.5 -131.5t316.5 131.5t131.5 316.5t-131.5 316.5t-316.5 131.5zM695 162q6 -6 8 -14.5t0 -16.5t-8 -14q-10 -10 -23 -10t-23 10l-137 138l-138 -137q-10 -9 -23 -9q-6 0 -12 2.5t-10 7.5q-4 3 -6 6.5
t-3 7.5t-1 8t1 8t3.5 8t5.5 7l138 136l-138 138q-9 9 -9 22.5t9.5 23t22.5 9.5t23 -10l137 -138l138 137q10 9 23 9t22.5 -9.5t9.5 -22.5t-10 -23l-138 -136z" />
    <glyph glyph-name="uniE659" unicode="&#xe659;" 
d="M512 -148q-185 0 -316.5 131.5t-131.5 316.5t131.5 316.5t316.5 131.5t316.5 -131.5t131.5 -316.5t-131.5 -316.5t-316.5 -131.5zM512 684q-104 0 -192.5 -51.5t-140 -140t-51.5 -192.5t51.5 -192.5t140 -140t192.5 -51.5t192.5 51.5t140 140t51.5 192.5t-51.5 192.5
t-140 140t-192.5 51.5zM557 299l138 136q10 10 10 23t-9.5 22.5t-22.5 9.5t-23 -9l-138 -137l-137 137q-6 6 -14 8t-16.5 0t-14.5 -8q-9 -9 -9 -22.5t9 -22.5l136 -137l-137 -136q-9 -9 -9.5 -22.5t9.5 -22.5t22 -10q7 0 12.5 2.5t10.5 7.5l138 136l138 -140q10 -9 23 -9
t22.5 9.5t9.5 22.5t-9 23z" />
    <glyph glyph-name="uniE65A" unicode="&#xe65a;" 
d="M512 748q-185 0 -316.5 -131.5t-131.5 -316.5t131.5 -316.5t316.5 -131.5t316.5 131.5t131.5 316.5t-131.5 316.5t-316.5 131.5zM662 276l-160 -158q-10 -10 -23 -10q-6 0 -12 2.5t-11 7.5q-6 6 -8 14t0 16.5t9 14.5l137 136l-136 137q-10 9 -10 22.5t10 22.5q6 6 14 8
t16.5 0t14.5 -8l159 -160v0q4 -4 7 -10q7 -20 -7 -35z" />
    <glyph glyph-name="uniE65B" unicode="&#xe65b;" 
d="M512 -148q-185 0 -316.5 131.5t-131.5 316.5t131.5 316.5t316.5 131.5t316.5 -131.5t131.5 -316.5t-131.5 -316.5t-316.5 -131.5zM512 684q-159 0 -271.5 -112.5t-112.5 -271.5t112.5 -271.5t271.5 -112.5t271.5 112.5t112.5 271.5t-112.5 271.5t-271.5 112.5zM669 311
q-2 3 -3.5 5.5t-3.5 4.5v0l-159 160q-9 9 -22.5 9t-23 -9t-9.5 -22.5t10 -22.5l136 -137l-138 -136q-9 -9 -9 -22.5t9 -22.5q10 -9 23 -10q4 0 8 1t7.5 3.5t6.5 5.5l161 158q15 15 7 35z" />
    <glyph glyph-name="uniE65C" unicode="&#xe65c;" 
d="M954 -96l-153 163q96 116 96 265q0 38 -7 75t-19.5 70.5t-30.5 64.5t-41 58t-50 50t-58.5 41t-65 31t-70 19.5t-74.5 6.5q-113 0 -209 -55.5t-151.5 -151.5t-55.5 -209t55.5 -208.5t151.5 -151.5t209 -56q90 0 172 37q12 6 16.5 18.5t-0.5 24.5q-4 8 -11 13t-15 5.5
t-17 -2.5q-69 -32 -145 -32q-96 0 -177 47.5t-128 128.5t-47 176q0 72 28 137t75 112t112 75t137 28q95 0 176 -47t128.5 -128t47.5 -177q0 -141 -98 -244q-9 -9 -9 -22.5t10 -22.5l1 -1t1.5 -1t1.5 -1.5t1 -2.5l166 -177q9 -10 23 -10q13 1 22 9q10 9 10.5 22t-8.5 23z" />
    <glyph glyph-name="uniE65D" unicode="&#xe65d;" 
d="M224 171.5q0 26.5 18.5 45t45 18.5t45.5 -18.5t19 -45t-19 -45t-45.5 -18.5t-45 18.5t-18.5 45zM673 171.5q0 26.5 18.5 45t45 18.5t45.5 -18.5t19 -44.5q0 -18 -9 -32.5t-23.5 -23t-31.5 -8.5q-27 0 -45.5 18.5t-18.5 45zM705 300h-384q-13 0 -22.5 9.5t-9.5 22.5
t9.5 22.5t22.5 9.5h384q9 0 16 -4.5t11.5 -11.5t4.5 -16q0 -13 -9.5 -22.5t-22.5 -9.5zM896 360v5q0 4 -1 7l-32 159q0 2 -0.5 4t-1.5 3q-16 34 -53 58t-72 24h-35v2l-1 4l-19 62q-3 12 -10.5 23.5t-18.5 19.5t-24.5 12.5t-28.5 4.5h-174q-29 0 -52 -17t-29 -41l-20 -63v-5
v-2h-36q-18 0 -36 -5t-35.5 -15t-32 -26.5t-22.5 -37.5q0 -1 -0.5 -2.5t-0.5 -2.5l-32 -160q-1 -3 -1 -7v-4q-28 -11 -46 -35.5t-18 -55.5v-195q0 -39 28 -66.5t68 -27.5h32v-2q0 -35 17 -64.5t46.5 -46.5t64.5 -17q53 0 90.5 37.5t37.5 90.5v2h128v-2q0 -35 17 -64.5
t46.5 -46.5t64.5 -17q53 0 90.5 37.5t37.5 90.5v2h32q40 0 68 27t28 67v195q0 21 -8 39.5t-22.5 31.5t-33.5 20zM406 674q1 3 6.5 6.5t12.5 3.5h174q5 0 9.5 -2t7 -5t3.5 -6l16 -51h-246zM896 74q0 -8 -4 -15t-11.5 -11t-16.5 -4h-64q-13 0 -22.5 -9.5t-9.5 -22.5v-34
q0 -26 -19 -45t-45 -19t-45 19t-19 45v34q0 13 -9.5 22.5t-22.5 9.5h-192q-13 0 -22.5 -9.5t-9.5 -22.5v-34q0 -26 -19 -45t-45 -19t-45 19t-19 45v34q0 13 -9.5 22.5t-22.5 9.5h-64q-14 0 -23 8.5t-9 21.5v195q0 5 1 9t3.5 7.5t5.5 6.5t6.5 5t7.5 3t9 1q6 0 12 2.5t10.5 7
t7 10.5t2.5 13l-1 28l31 153q5 13 16 22.5t24 14t25 4.5h448q8 0 17.5 -3.5t18.5 -9.5t17 -13.5t13 -15.5l30 -152v-29q0 -13 9.5 -22.5t22.5 -9.5q7 0 12.5 -2.5t10 -6.5t7 -10t2.5 -13v-195z" />
    <glyph glyph-name="uniE65E" unicode="&#xe65e;" 
d="M512 748q-185 0 -316.5 -131.5t-131.5 -316.5t131.5 -316.5t316.5 -131.5t316.5 131.5t131.5 316.5t-131.5 316.5t-316.5 131.5zM671 236h-191q-9 0 -16 4.5t-11.5 11.5t-4.5 16v255q0 13 9.5 22.5t22.5 9.5t22.5 -9.5t9.5 -22.5v-223h159q14 0 23 -9.5t9 -22.5t-9 -22.5
t-23 -9.5z" />
    <glyph glyph-name="uniE65F" unicode="&#xe65f;" 
d="M512 748q-185 0 -316.5 -131.5t-131.5 -316.5t131.5 -316.5t316.5 -131.5t316.5 131.5t131.5 316.5t-131.5 316.5t-316.5 131.5zM512 -84q-104 0 -192.5 51.5t-140 140t-51.5 192.5t51.5 192.5t140 140t192.5 51.5t192.5 -51.5t140 -140t51.5 -192.5t-51.5 -192.5
t-140 -140t-192.5 -51.5zM672 300h-160v224q0 9 -4.5 16t-11.5 11.5t-16 4.5q-7 0 -12.5 -2.5t-10 -7t-7 -10.5t-2.5 -12v-256q0 -13 9.5 -22.5t22.5 -9.5h192q13 0 22.5 9.5t9.5 22.5t-9.5 22.5t-22.5 9.5z" />
    <glyph glyph-name="uniE661" unicode="&#xe661;" 
d="M890 481q-17 18 -39 5q-3 -3 -6 -5l-328 -331l-332 329q-6 7 -14.5 9t-16.5 -0.5t-14 -8.5q-10 -9 -10 -22.5t10 -22.5l353 -350h1l1 -1v-1q10 -9 23 -9t22 9l350 354q3 2 5 5.5t3 6.5t1.5 6.5t0 7.5t-1.5 7t-3 6t-5 6z" />
    <glyph glyph-name="uniE662" unicode="&#xe662;" 
d="M943 43l-341 609q-35 63 -90.5 63t-90.5 -63l-340 -609q-34 -62 -6 -111q29 -48 100 -48h674q71 0 99.5 48.5t-5.5 110.5zM480 492q0 13 9.5 22.5t22.5 9.5t22.5 -9.5t9.5 -22.5v-288q0 -13 -9.5 -22.5t-22.5 -9.5t-22.5 9.5t-9.5 22.5v288zM512 -20q-20 0 -34 14t-14 34
t14 34t34 14t34 -14t14 -34t-14 -34t-34 -14z" />
    <glyph glyph-name="uniE663" unicode="&#xe663;" 
d="M849 -117h-674q-71 0 -99.5 49t5.5 111l340 609q35 63 91 63q13 0 25.5 -4t24 -12t22 -20t18.5 -27l341 -609q34 -63 5.5 -111.5t-99.5 -48.5zM512 651q-9 0 -18 -8t-17 -22l-340 -610q-17 -30 -7 -47t45 -17h674q35 0 45 17t-7 47l-341 610q-16 30 -34 30zM512 172
q-13 0 -22.5 9.5t-9.5 22.5v288q0 13 9.5 22.5t22.5 9.5t22.5 -9.5t9.5 -22.5v-288q0 -13 -9.5 -22.5t-22.5 -9.5zM512 60zM464 60q0 13 6.5 24t17.5 17.5t24 6.5t24 -6.5t17.5 -17.5t6.5 -24q0 -20 -14 -34t-34 -14t-34 14t-14 34z" />
    <glyph glyph-name="uniE664" unicode="&#xe664;" 
d="M864 620h-352q0 40 -28 68t-68 28h-64q-40 0 -68 -28t-28 -68h-96q-40 0 -68 -28t-28 -68v-512q0 -40 28 -68t68 -28h704q40 0 68 28t28 68v512q0 40 -28 68t-68 28zM512 76q-79 0 -135.5 56.5t-56.5 135.5t56.5 135.5t135.5 56.5t135.5 -56.5t56.5 -135.5t-56.5 -135.5
t-135.5 -56.5zM816 396q-20 0 -34 14t-14 34t14 34t34 14t34 -14t14 -34t-14 -34t-34 -14z" />
    <glyph glyph-name="uniE665" unicode="&#xe665;" 
d="M512 76q-79 0 -135.5 56.5t-56.5 135.5t56.5 135.5t135.5 56.5t135.5 -56.5t56.5 -135.5t-56.5 -135.5t-135.5 -56.5zM512 396q-53 0 -90.5 -37.5t-37.5 -90.5t37.5 -90.5t90.5 -37.5t90.5 37.5t37.5 90.5t-37.5 90.5t-90.5 37.5zM864 -84h-704q-40 0 -68 28t-28 68v512
q0 40 28 68t68 28h96q13 0 22.5 -9.5t9.5 -22.5t-9.5 -22.5t-22.5 -9.5h-96q-13 0 -22.5 -9.5t-9.5 -22.5v-512q0 -13 9.5 -22.5t22.5 -9.5h704q13 0 22.5 9.5t9.5 22.5v512q0 13 -9.5 22.5t-22.5 9.5h-352q-13 0 -22.5 9.5t-9.5 22.5t9.5 22.5t22.5 9.5h352q40 0 68 -28
t28 -68v-512q0 -40 -28 -68t-68 -28zM816 476zM768 476q0 20 14 34t34 14t34 -14t14 -34t-14 -34t-34 -14t-34 14t-14 34zM480 684q0 -13 -9.5 -22.5t-22.5 -9.5h-128q-13 0 -22.5 9.5t-9.5 22.5t9.5 22.5t22.5 9.5h128q13 0 22.5 -9.5t9.5 -22.5z" />
    <glyph glyph-name="uniE666" unicode="&#xe666;" 
d="M832 684h-640q-40 0 -68 -28t-28 -68v-512q0 -40 28 -68t68 -28h211l86 -87q10 -9 23 -9t23 9l86 87h211q40 0 68 28t28 68v512q0 40 -28 68t-68 28zM336 300q-20 0 -34 14t-14 34t14 34t34 14t34 -14t14 -34t-14 -34t-34 -14zM528 300q-20 0 -34 14t-14 34t14 34t34 14
t34 -14t14 -34t-14 -34t-34 -14zM720 300q-20 0 -34 14t-14 34t14 34t34 14t34 -14t14 -34t-14 -34t-34 -14z" />
    <glyph glyph-name="uniE667" unicode="&#xe667;" 
d="M512 -116q-13 0 -23 9l-96 96q-9 10 -9 23t9 23q7 6 15 8t16 0t15 -8l73 -74l73 74q10 9 23 9h224q13 0 22.5 9.5t9.5 22.5v512q0 13 -9.5 22.5t-22.5 9.5h-640q-13 0 -22.5 -9.5t-9.5 -22.5v-512q0 -13 9.5 -22.5t22.5 -9.5h96q13 0 22.5 -9.5t9.5 -22.5t-9.5 -22.5
t-22.5 -9.5h-96q-40 0 -68 28t-28 68v512q0 40 28 68t68 28h640q40 0 68 -28t28 -68v-512q0 -40 -28 -68t-68 -28h-211l-86 -87q-10 -9 -23 -9zM336 300q-20 0 -34 14t-14 34t14 34t34 14t34 -14t14 -34t-14 -34t-34 -14zM528 300q-20 0 -34 14t-14 34t14 34t34 14t34 -14
t14 -34t-14 -34t-34 -14zM720 300q-20 0 -34 14t-14 34t14 34t34 14t34 -14t14 -34t-14 -34t-34 -14z" />
    <glyph glyph-name="uniE668" unicode="&#xe668;" 
d="M736 684q-102 0 -176 -70q-6 -5 -48 -48l-47 47q-74 71 -177 71q-106 0 -181 -75t-75 -181q0 -100 76 -182l317 -321q42 -41 87 -41t87 42l316 320l3 2q25 31 37.5 49.5t24.5 54t12 76.5q0 106 -75 181t-181 75z" />
    <glyph glyph-name="uniE669" unicode="&#xe669;" 
d="M512 -116q-45 0 -87 41l-319 323q-19 24 -28.5 37.5t-22 36.5t-18 49t-5.5 57q0 106 75 181t181 75q40 0 77.5 -12t69.5 -35q11 -7 13.5 -20t-5.5 -24t-21 -13.5t-24 5.5q-24 17 -52 26t-58 9q-79 0 -135.5 -56.5t-56.5 -135.5q0 -43 13 -70t46 -69l316 -319
q22 -22 41 -22q18 0 41 23l317 320q58 62 58 137q0 79 -56.5 135.5t-135.5 56.5q-75 0 -130 -50l-134 -134q-9 -10 -22 -10t-23 10q-6 6 -8 14t0 16.5t8 14.5l135 135q75 68 174 68q106 0 181 -75t75 -181q0 -100 -76 -182l-317 -320q-42 -42 -87 -42z" />
    <glyph glyph-name="uniE66A" unicode="&#xe66a;" 
d="M526 -112q-15 0 -32.5 9.5t-36.5 27.5l-182 183h-83q-40 0 -68 28t-28 68v192q0 40 28 68t68 28h83l182 183q37 37 69 37q13 0 23.5 -5.5t18.5 -19.5t8 -35v-704q0 -31 -15 -45.5t-35 -14.5zM688 82h-4h-4l-4 2q-2 0 -3.5 1t-3.5 3q-11 7 -13 20.5t6 23.5l12 18
q22 29 32 45t20 45t10 60q0 33 -9 60.5t-18.5 42.5t-29.5 42q-10 13 -17 23q-8 10 -6 23.5t13 20.5q7 5 15.5 6t16.5 -2.5t13 -10.5q3 -5 6.5 -9.5t9.5 -11.5q23 -31 34.5 -49.5t23.5 -55.5t12 -79q0 -41 -13 -79t-25 -57.5t-36 -51.5l-12 -17q-10 -13 -26 -13zM796 -27
q-12 0 -21 8q-10 9 -10.5 22t7.5 23q38 43 62 78.5t43 88t19 107.5q0 80 -33 144t-91 130q-8 10 -7.5 23t10.5 22q7 6 15.5 7.5t16.5 -1t14 -9.5q63 -73 101 -147.5t38 -168.5t-38 -168.5t-101 -147.5q-10 -11 -25 -11z" />
    <glyph glyph-name="uniE66B" unicode="&#xe66b;" 
d="M526 -112q-15 0 -32.5 9.5t-36.5 27.5l-182 183h-83q-40 0 -68 28t-28 68v192q0 40 28 68t68 28h83l182 183q37 37 69 37q13 0 23.5 -5.5t18.5 -19.5t8 -35v-704q0 -31 -15 -45.5t-35 -14.5zM192 428q-13 0 -22.5 -9.5t-9.5 -22.5v-192q0 -13 9.5 -22.5t22.5 -9.5h96
q13 0 23 -9l192 -192l9 -9v676q-5 -4 -9 -9l-192 -192q-10 -9 -23 -9h-96zM688 82h-4h-4l-4 2q-2 0 -3.5 1t-3.5 3q-11 7 -13 20.5t6 23.5l12 18q22 29 32 45t20 45t10 60q0 33 -9 60.5t-18.5 42.5t-29.5 42q-10 13 -17 23q-8 10 -6 23.5t13 20.5q7 5 15.5 6t16.5 -2.5
t13 -10.5q3 -5 6.5 -9.5t9.5 -11.5q23 -31 34.5 -49.5t23.5 -55.5t12 -79q0 -41 -13 -79t-25 -57.5t-36 -51.5l-12 -17q-10 -13 -26 -13zM796 -27q-12 0 -21 8q-10 9 -10.5 22t7.5 23q38 43 62 78.5t43 88t19 107.5q0 80 -33 144t-91 130q-8 10 -7.5 23t10.5 22
q7 6 15.5 7.5t16.5 -1t14 -9.5q63 -73 101 -147.5t38 -168.5t-38 -168.5t-101 -147.5q-10 -11 -25 -11z" />
    <glyph glyph-name="uniE66C" unicode="&#xe66c;" 
d="M332 649.5q-20 8.5 -35 -6.5l-192 -192q-6 -7 -8 -15t0 -16t8 -15q10 -9 23 -9t23 9l137 138v-531q0 -13 9.5 -22.5t22.5 -9.5t22.5 9.5t9.5 22.5v608q0 21 -20 29.5zM919 195q-7 6 -15 8t-16 0t-15 -8l-105 -106v531q0 13 -9.5 22.5t-22.5 9.5t-22.5 -9.5t-9.5 -22.5
v-608q0 -6 2.5 -12t7 -10.5t10.5 -7.5q3 -1 6 -1.5t6 -0.5q13 0 23 9l160 160q3 3 5 7t3 8t1 8t-1 8t-3 8t-5 7z" />
    <glyph glyph-name="uniE66D" unicode="&#xe66d;" 
d="M352 460h128v-128h-128v128zM919 -61l-146 145q91 108 91 248q0 159 -112.5 271.5t-271.5 112.5t-271.5 -112.5t-112.5 -271.5t112.5 -271.5t271.5 -112.5q140 0 248 91l145 -146q10 -9 23 -9t22.5 9.5t9.5 22.5t-9 23zM288 300v192q0 13 9.5 22.5t22.5 9.5h192
q13 0 22.5 -9.5t9.5 -22.5v-192q0 -13 -9.5 -22.5t-22.5 -9.5h-192q-13 0 -22.5 9.5t-9.5 22.5zM640 204q0 -13 -9.5 -22.5t-22.5 -9.5h-160q-13 0 -22.5 9.5t-9.5 22.5t9.5 22.5t22.5 9.5h128v128q0 13 9.5 22.5t22.5 9.5t22.5 -9.5t9.5 -22.5v-160z" />
    <glyph glyph-name="uniE66E" unicode="&#xe66e;" 
d="M512 268h-192q-13 0 -22.5 9.5t-9.5 22.5v192q0 13 9.5 22.5t22.5 9.5h192q13 0 22.5 -9.5t9.5 -22.5v-192q0 -13 -9.5 -22.5t-22.5 -9.5zM352 332h128v128h-128v-128zM608 172h-160q-13 0 -22.5 9.5t-9.5 22.5t9.5 22.5t22.5 9.5h128v128q0 13 9.5 22.5t22.5 9.5
t22.5 -9.5t9.5 -22.5v-160q0 -13 -9.5 -22.5t-22.5 -9.5zM896 -116q-13 0 -23 9l-167 167q-9 10 -9 23t9 23q94 93 94 226q0 132 -94 226t-226 94t-226 -94t-94 -226t94 -226t226 -94q59 0 114 21q13 5 25 -0.5t16 -18.5q3 -8 2 -16t-6.5 -15t-13.5 -10q-66 -25 -137 -25
q-159 0 -271.5 112.5t-112.5 271.5t112.5 271.5t271.5 112.5t271.5 -112.5t112.5 -271.5q0 -69 -23.5 -132.5t-67.5 -115.5l146 -145q6 -7 8 -15t0 -16t-8 -15q-10 -9 -23 -9z" />
    <glyph glyph-name="uniE66F" unicode="&#xe66f;" 
d="M736 716h-128q-59 0 -89.5 -12t-70.5 -52l-320 -320q-30 -30 -31.5 -76.5t31.5 -83.5l256 -256q9 -9 19.5 -15.5t21.5 -10t21 -5t21 -1.5q45 0 77 32l320 320q40 40 52 71.5t12 88.5v128q0 109 -41.5 150.5t-150.5 41.5zM704 396q-40 0 -68 28t-28 68t28 68t68 28t68 -28
t28 -68t-28 -68t-68 -28z" />
    <glyph glyph-name="uniE670" unicode="&#xe670;" 
d="M704 396q-40 0 -68 28t-28 68t28 68t68 28t68 -28t28 -68t-28 -68t-68 -28zM704 524q-13 0 -22.5 -9.5t-9.5 -22.5t9.5 -22.5t22.5 -9.5t22.5 9.5t9.5 22.5t-9.5 22.5t-22.5 9.5zM896 524zM467 -116q-51 0 -83 32l-256 256q-33 37 -31.5 83.5t31.5 76.5l288 288
q10 10 24.5 10.5t24.5 -8.5q24 -25 -5 -54l-279 -279q-21 -23 -20.5 -38.5t21.5 -36.5l249 -249q6 -6 11 -9.5t10.5 -5.5t11 -2t11 2t11.5 6t13 11l333 333q19 19 25.5 39t6.5 57v128q0 83 -22.5 105.5t-105.5 22.5h-192q-13 0 -22.5 9.5t-9.5 22.5t9.5 22.5t22.5 9.5h192
q109 0 150.5 -41.5t41.5 -150.5v-128q0 -57 -12 -88.5t-52 -71.5l-320 -320q-32 -32 -77 -32z" />
    <glyph glyph-name="uniE671" unicode="&#xe671;" 
d="M352 236h-128q-13 0 -22.5 9.5t-9.5 22.5t9.5 22.5t22.5 9.5h96v96q0 13 9.5 22.5t22.5 9.5t22.5 -9.5t9.5 -22.5v-128q0 -13 -9.5 -22.5t-22.5 -9.5zM702 145q-46 0 -81.5 -28.5t-45.5 -72.5h-124q-7 29 -25 52t-45 36t-57 13q-27 0 -51 -10.5t-42 -28t-28 -41.5
t-10 -51q0 -54 38 -92.5t93 -38.5q44 0 79 27.5t47 69.5h126q12 -42 46.5 -69.5t79.5 -27.5q54 0 92.5 38.5t38.5 92.5t-38.5 92.5t-92.5 38.5zM323.5 -53q-27.5 0 -47 19.5t-19.5 47.5q0 11 3 21.5t9.5 18.5t14.5 14t18.5 9.5t21.5 3.5q27 0 47 -19.5t20 -47.5t-20 -47.5
t-47.5 -19.5zM702 -53q-18 0 -33.5 9t-24.5 24.5t-9 33.5t9 33.5t24.5 24.5t33.5 9q28 0 47.5 -19.5t19.5 -47.5q0 -18 -9 -33.5t-24.5 -24.5t-33.5 -9zM864 716h-464q-13 0 -25.5 -4t-22 -11.5t-17 -17t-11.5 -22t-4 -25.5v-92l-195 -98l-4 -2q-56 -40 -56 -112v-322
q0 -13 9.5 -22.5t23 -9.5t22.5 9.5t9 22.5v322q0 38 27 58l210 105l2 2l2 1q4 3 5 4.5t3 3.5l1 1l3 6q0 2 1 6v2l1 3v112q0 5 2 8.5t5.5 5.5t8.5 2h464q13 0 22.5 -9.5t9.5 -23.5v-607q0 -13 9.5 -22.5t22.5 -9.5t22.5 9.5t9.5 22.5v607q0 40 -28 68.5t-68 28.5z" />
    <glyph glyph-name="uniE672" unicode="&#xe672;" 
d="M406 -120q-7 0 -13.5 2.5t-10.5 8.5q-24 26 -55.5 45t-57.5 28t-53.5 14t-38 6t-16.5 1q-13 0 -22.5 9t-9.5 22.5t9 23t22 9.5q6 0 21 -1t47 -7t64 -17t70 -34.5t67 -56.5q5 -5 7 -11t1.5 -12t-3 -12t-7.5 -10q-9 -8 -21 -8zM620 -120q-12 0 -22 8q-9 9 -9.5 22.5
t8.5 23.5q30 32 68.5 56t70 34.5t63.5 16.5t46 7t21 1q13 0 22 -9.5t9 -23t-9.5 -22.5t-22.5 -9v0q-6 0 -16 -0.5t-37.5 -6t-53.5 -14.5t-58 -28.5t-56 -45.5q-2 -2 -4.5 -3.5t-4.5 -3t-5 -1.5l-4 -2h-6zM564 43h-102h-4q-3 0 -5 1q-81 11 -148 56.5t-112 121.5
q-51 87 -62 191t23 186q4 9 12 14t17 5h10q91 0 169 -34q29 52 60.5 90.5t67.5 64.5q4 3 8 5q16 7 31 -2l4 -4q36 -26 67 -64.5t60 -91.5q39 18 82.5 27t90.5 9h10q4 0 7.5 -1t6.5 -2.5t6 -4t5 -5.5l4 -6q34 -82 23 -186t-62 -192q-30 -50 -70 -87t-88 -60t-102 -30
q-5 -1 -9 -1zM468 107h90h2q140 16 217 147q41 69 52.5 151.5t-9.5 148.5q-88 -3 -159 -42q-12 -7 -25 -3t-19 17q-49 99 -106 148q-15 -12 -28.5 -27.5t-27 -34t-26 -39.5t-24.5 -45q-6 -13 -19 -17t-25 3q-70 38 -155 40q-21 -66 -9.5 -148.5t52.5 -151.5
q77 -131 217 -147h2zM513 -148q-13 0 -22.5 9.5t-9.5 22.5v191q0 13 9.5 22.5t22.5 9.5t22.5 -9.5t9.5 -22.5v-191q0 -13 -9.5 -22.5t-22.5 -9.5z" />
    <glyph glyph-name="uniE673" unicode="&#xe673;" 
d="M799 -88h-639q-26 0 -48 12.5t-35 35t-13 48.5v578q0 40 28 68t68 28h642q40 0 68 -28t28 -68v-94q0 -13 -9 -22.5t-23 -9.5q-8 0 -15.5 4.5t-12 11.5t-4.5 16v94q0 5 -1.5 10t-4.5 9t-7 7t-8.5 4.5t-10.5 1.5h-642q-4 0 -8.5 -1t-8 -3t-6.5 -5t-5 -6.5t-3 -8t-1 -8.5
v-578q0 -9 4.5 -16.5t11.5 -11.5t16 -4h639q14 0 23 9t9 23v98q0 14 9.5 23t23 9t22.5 -9t9 -23v-98q0 -40 -28 -68t-68 -28zM661 298zM630 298q0 8 4.5 15.5t11.5 11.5t15 4q13 0 22.5 -9t9.5 -22q0 -9 -4.5 -16t-11.5 -11t-16 -4q-12 0 -21.5 9t-9.5 22zM896 172h-320
q-26 0 -45 19t-19 45v128q0 26 19 45t45 19h320q26 0 45 -19t19 -45v-128q0 -26 -19 -45t-45 -19zM576 364v-128h320v128h-320z" />
    <glyph glyph-name="uniE675" unicode="&#xe675;" 
d="M287 300h-62q-13 0 -22.5 9.5t-9.5 22.5q0 9 4.5 16t11.5 11.5t16 4.5h62q13 0 22.5 -9.5t9.5 -22.5t-9.5 -22.5t-22.5 -9.5zM883 684h-742q-32 0 -54.5 -22.5t-22.5 -54.5v-155v-8v-458q0 -10 2.5 -19t7 -16.5t11 -14t14.5 -11t17.5 -7t18.5 -2.5h754q29 0 50 20.5
t21 49.5v458v163q0 32 -22.5 54.5t-54.5 22.5zM896 607v-131h-223v144h210q3 0 6 -2t5 -5t2 -6zM447 620h162v-360l-71 28q-2 1 -4 1.5t-4 0.5h-4h-4q-2 0 -4 -1t-4 -1l-67 -28v360zM128 607q0 5 4 9t9 4h242v-144h-255v131zM889 -20h-754q-7 0 -7 6v426h255v-200
q0 -17 14 -26q3 -2 5.5 -3t6 -2t6.5 -1h4l4 2q2 0 4 1l99 40l103 -40q3 -2 6 -2.5t6 -0.5t6 1l6 2q3 1 5 3q15 9 15 26v200h223v-426q0 -2 -1 -3t-2.5 -2t-3.5 -1z" />
    <glyph glyph-name="uniE676" unicode="&#xe676;" 
d="M953 459v1v1q-1 3 -2 5l-75 187q-6 19 -20 33t-33 21.5t-41 7.5h-527q-21 0 -39.5 -7.5t-31.5 -21t-20 -32.5l-80 -190q0 -1 -0.5 -2t-0.5 -3q-3 -6 -4.5 -13t-2.5 -14t-1.5 -14t-0.5 -13q0 -49 25 -91t68 -65v0v0q36 -19 83 -19q82 0 134 63q52 -62 134 -63q81 1 133 63
q52 -62 135 -62q48 0 84 20q42 23 66.5 64.5t24.5 89.5q0 7 -0.5 14t-1.5 14t-2.5 13.5t-3.5 12.5zM839 307q-5 -3 -11.5 -5.5t-13 -4t-14 -2t-15.5 -0.5q-29 0 -54 14t-41 39q-4 8 -8 13q-12 13 -31 13q-20 0 -31 -13q-4 -5 -8 -13q-16 -25 -40.5 -39t-53.5 -15
q-14 1 -28 4.5t-26 10.5t-22.5 17t-18.5 22q-4 8 -7 12q-11 13 -31.5 13t-30.5 -12q-5 -5 -9 -14q-8 -12 -18.5 -22t-22.5 -17t-26 -10.5t-28 -3.5q-31 0 -53 12v0q-13 7 -24.5 17.5t-19 23t-11.5 27.5t-4 30q0 19 6 37q0 1 0.5 1.5t0.5 1.5l79 188q7 19 31 19h527
q27 -2 34 -21l74 -185v-2l1 -1q6 -18 6 -37q0 -20 -7 -39t-20 -34.5t-31 -24.5zM863 204q-13 0 -22.5 -9.5t-9.5 -22.5v-175q0 -7 -5 -12.5t-13 -5.5h-602q-7 0 -12.5 5t-5.5 13v171q0 14 -9.5 23t-22.5 9t-22.5 -9t-9.5 -23v-171q0 -22 11 -41t30 -30t41 -11h602
q22 0 41 11t30 30t11 41v175q0 13 -9.5 22.5t-22.5 9.5zM768 428h-512q-13 0 -22.5 9.5t-9.5 22.5t9.5 22.5t22.5 9.5h512q13 0 22.5 -9.5t9.5 -22.5t-9.5 -22.5t-22.5 -9.5z" />
    <glyph glyph-name="uniE677" unicode="&#xe677;" 
d="M430 -145q-11 0 -22 3t-20.5 8.5t-17.5 13.5l-68 70q-9 10 -9 23t10 23q11 10 16.5 23.5t5.5 28.5q0 8 -1 15t-4 13.5t-7 13t-9 11.5q-21 21 -52.5 21.5t-52.5 -20.5q-10 -9 -23 -9q-14 0 -23 10l-68 70q-24 25 -23.5 59.5t25.5 58.5l443 435q16 15 38 20.5t43.5 -0.5
t37.5 -21l68 -71q9 -9 8.5 -22.5t-9.5 -22.5q-22 -22 -22.5 -52.5t21.5 -52.5q21 -22 52.5 -22.5t52.5 20.5q5 5 10.5 7t12.5 2q3 0 6.5 -0.5t6 -1.5t5 -3t5.5 -4l68 -70q7 -8 12.5 -17.5t8.5 -20t2 -21.5q0 -35 -25 -60l-443 -434q-12 -12 -27 -18t-32 -6zM368 -25l48 -50
q6 -6 14 -6t14 6l443 434q6 6 6 14q0 4 -1 7.5t-4 6.5l-49 50q-7 -5 -16 -8.5t-18 -6t-18 -4t-19 -1.5q-58 0 -99 42q-40 41 -39 98q0 40 21 73l-48 50q-6 5 -14 5.5t-14 -5.5l-444 -434q-2 -2 -3 -4l-2 -6q-1 -2 -1 -4q0 -8 6 -14l48 -50q33 20 72 20q28 0 53.5 -11
t45.5 -31q40 -41 39 -99q0 -39 -21 -72zM354 229q-6 0 -12 2.5t-10 6.5q-7 6 -9 14.5t0 16.5t9 14l178 179q10 9 23 9t22.5 -9t9.5 -22.5t-9 -22.5l-179 -179q-10 -9 -23 -9zM450 133q-3 0 -6 0.5t-6 2t-5.5 3t-5.5 4.5q-9 9 -9 22t9 23l179 178q9 10 22.5 10t22.5 -9.5
t9 -22.5t-9 -23l-179 -178q-9 -10 -22 -10z" />
    <glyph glyph-name="uniE678" unicode="&#xe678;" 
d="M528 284q-20 0 -34 14t-14 34v64q0 20 14 34t34 14t34 -14t14 -34v-64q0 -20 -14 -34t-34 -14zM719 284q-20 0 -34 14t-14 34v64q0 20 14 34t34 14q13 0 24 -6.5t17.5 -17.5t6.5 -24v-64q0 -13 -6.5 -24t-17.5 -17.5t-24 -6.5zM512 744q-123 0 -228 -62q-61 66 -159 66
q-18 0 -28 -17q-4 -7 -3.5 -16t4.5 -16q1 -1 4 -6.5t9 -18.5t11 -28t10.5 -38t7.5 -46q1 -12 10.5 -20.5t21.5 -8.5h2h1q9 1 16 6t10.5 13t2.5 17q-6 55 -25 106q14 -4 25.5 -10.5t23.5 -17.5t22 -25v-1l3 -3l1 -1l4 -5q1 0 7 -2l2 -1q2 -1 3 -1h6h6q2 0 4 1q1 1 2 1l2 1
l4 1v1h1q98 67 217 67q104 0 192.5 -51t140 -139.5t51.5 -192.5t-51.5 -192.5t-140 -140t-192.5 -51.5q-151 0 -262 104q-108 101 -120 248q-2 16 -2 32q0 81 33 155q3 9 2.5 17t-5.5 15t-13 11q-5 2 -10 2.5t-10 -0.5t-9 -3.5t-7.5 -6.5t-5.5 -9q-39 -86 -39 -181
q0 -91 35.5 -174t95.5 -143t143 -95.5t174 -35.5t174 35.5t143 95.5t95.5 143t35.5 174t-35.5 173.5t-95.5 142.5t-143 95.5t-174 35.5z" />
    <glyph glyph-name="uniE679" unicode="&#xe679;" 
d="M672 -100q-20 0 -34 14l-352 352q-14 14 -14 34t14 34l352 352q9 9 21.5 12.5t25 0t21.5 -12.5t12.5 -21.5t0 -25t-12.5 -21.5l-318 -318l318 -318q9 -9 12.5 -21.5t0 -25t-12.5 -21.5q-7 -7 -16 -10.5t-18 -3.5z" />
    <glyph glyph-name="uniE67C" unicode="&#xe67c;" 
d="M384 332h-192q-40 0 -68 28t-28 68v192q0 40 28 68t68 28h192q40 0 68 -28t28 -68v-192q0 -40 -28 -68t-68 -28zM192 652q-13 0 -22.5 -9.5t-9.5 -22.5v-192q0 -13 9.5 -22.5t22.5 -9.5h192q13 0 22.5 9.5t9.5 22.5v192q0 13 -9.5 22.5t-22.5 9.5h-192zM384 -116h-192
q-40 0 -68 28t-28 68v192q0 40 28 68t68 28h192q40 0 68 -28t28 -68v-192q0 -40 -28 -68t-68 -28zM192 204q-13 0 -22.5 -9.5t-9.5 -22.5v-192q0 -13 9.5 -22.5t22.5 -9.5h192q13 0 22.5 9.5t9.5 22.5v192q0 13 -9.5 22.5t-22.5 9.5h-192zM832 -116h-192q-40 0 -68 28
t-28 68v64q0 40 28 68t68 28h192q40 0 68 -28t28 -68v-64q0 -40 -28 -68t-68 -28zM640 76q-13 0 -22.5 -9.5t-9.5 -22.5v-64q0 -13 9.5 -22.5t22.5 -9.5h192q13 0 22.5 9.5t9.5 22.5v64q0 13 -9.5 22.5t-22.5 9.5h-192zM832 204h-192q-40 0 -68 28t-28 68v320q0 40 28 68
t68 28h192q40 0 68 -28t28 -68v-320q0 -40 -28 -68t-68 -28zM640 652q-13 0 -22.5 -9.5t-9.5 -22.5v-320q0 -13 9.5 -22.5t22.5 -9.5h192q13 0 22.5 9.5t9.5 22.5v320q0 13 -9.5 22.5t-22.5 9.5h-192z" />
    <glyph glyph-name="uniE67E" unicode="&#xe67e;" 
d="M544 524q0 40 -28 68t-68 28t-68 -28t-28 -68t28 -68t68 -28t68 28t28 68zM416 524q0 13 9.5 22.5t22.5 9.5t22.5 -9.5t9.5 -22.5t-9.5 -22.5t-22.5 -9.5t-22.5 9.5t-9.5 22.5zM304 364q-33 0 -56.5 -23.5t-23.5 -56.5t23.5 -56.5t56.5 -23.5t56.5 23.5t23.5 56.5
t-23.5 56.5t-56.5 23.5zM304 268q-7 0 -11.5 4.5t-4.5 11.5t4.5 11.5t11.5 4.5t11.5 -4.5t4.5 -11.5t-4.5 -11.5t-11.5 -4.5zM640 76zM576 76q0 26 19 45t45 19t45 -19t19 -45t-19 -45t-45 -19t-45 19t-19 45zM888 543q64 98 64 149q0 28 -17 45q-42 42 -161 -26
q-11 -6 -14.5 -19t3 -24.5t19 -15t24.5 3.5q56 32 82 33q-1 -39 -86 -158t-244 -275q-154 -152 -278.5 -238.5t-163.5 -87.5q1 8 4.5 19.5t17.5 38.5t36 61l4 6l2 6v1v1q16 18 4 37q-28 45 -42 96t-14 104q0 159 112.5 271.5t271.5 112.5q89 0 169 -39q6 -3 12.5 -3.5
t12 1.5t10.5 6.5t8 10.5q6 11 1.5 24t-16.5 18q-93 46 -197 46q-185 0 -316.5 -131.5t-131.5 -316.5q0 -115 56 -217v-1h-1q-100 -150 -50 -199q16 -15 43 -15q53 0 150 61q113 -77 250 -77q185 0 316.5 131.5t131.5 316.5q0 132 -72 243zM512 -84q-103 0 -192 52
q136 97 283 242t245 276q15 -28 26 -58.5t16.5 -62.5t5.5 -65q0 -159 -112.5 -271.5t-271.5 -112.5z" />
    <glyph glyph-name="uniE682" unicode="&#xe682;" 
d="M896 556h-288q-13 0 -22.5 9.5t-9.5 22.5t9.5 22.5t22.5 9.5h288q13 0 22.5 -9.5t9.5 -22.5t-9.5 -22.5t-22.5 -9.5zM896 396h-288q-13 0 -22.5 9.5t-9.5 22.5t9.5 22.5t22.5 9.5h288q13 0 22.5 -9.5t9.5 -22.5t-9.5 -22.5t-22.5 -9.5zM896 140h-288q-13 0 -22.5 9.5
t-9.5 22.5t9.5 22.5t22.5 9.5h288q13 0 22.5 -9.5t9.5 -22.5t-9.5 -22.5t-22.5 -9.5zM896 -20h-288q-13 0 -22.5 9.5t-9.5 22.5t9.5 22.5t22.5 9.5h288q13 0 22.5 -9.5t9.5 -22.5t-9.5 -22.5t-22.5 -9.5zM384 332h-192q-40 0 -68 28t-28 68v192q0 40 28 68t68 28h192
q40 0 68 -28t28 -68v-192q0 -40 -28 -68t-68 -28zM192 652q-13 0 -22.5 -9.5t-9.5 -22.5v-192q0 -13 9.5 -22.5t22.5 -9.5h192q13 0 22.5 9.5t9.5 22.5v192q0 13 -9.5 22.5t-22.5 9.5h-192zM384 -116h-192q-40 0 -68 28t-28 68v192q0 40 28 68t68 28h192q40 0 68 -28t28 -68
v-192q0 -40 -28 -68t-68 -28zM192 204q-13 0 -22.5 -9.5t-9.5 -22.5v-192q0 -13 9.5 -22.5t22.5 -9.5h192q13 0 22.5 9.5t9.5 22.5v192q0 13 -9.5 22.5t-22.5 9.5h-192z" />
    <glyph glyph-name="uniE684" unicode="&#xe684;" 
d="M224 204q-40 0 -68 28t-28 68t28 68t68 28t68 -28t28 -68t-28 -68t-68 -28zM512 204q-40 0 -68 28t-28 68t28 68t68 28t68 -28t28 -68t-28 -68t-68 -28zM800 204q-40 0 -68 28t-28 68t28 68t68 28t68 -28t28 -68t-28 -68t-68 -28z" />
    <glyph glyph-name="uniE685" unicode="&#xe685;" 
d="M512 748q-185 0 -316.5 -131.5t-131.5 -316.5t131.5 -316.5t316.5 -131.5t316.5 131.5t131.5 316.5t-131.5 316.5t-316.5 131.5zM765 12q0 22 -21 30q-3 1 -12.5 5t-17.5 7.5t-22 7.5l-25 9q-12 4 -28 8t-31 6v14q46 45 74 122.5t28 146.5q0 96 -47.5 148t-134.5 52
q-89 0 -140.5 -53t-51.5 -147q0 -50 19 -130t61 -131v-17q-21 -5 -42 -10.5t-50.5 -14t-49.5 -15.5q-11 -4 -16 -14.5t-2 -21.5q-61 53 -95 127.5t-34 158.5q0 104 51.5 192.5t140 140t193 51.5t193 -51.5t140 -140t51.5 -192.5q0 -85 -35 -160t-96 -128z" />
    <glyph glyph-name="uniE686" unicode="&#xe686;" 
d="M512 748q-185 0 -316.5 -131.5t-131.5 -316.5t131.5 -316.5t316.5 -131.5t316.5 131.5t131.5 316.5t-131.5 316.5t-316.5 131.5zM289 -12h1l9 1q103 37 158 41q12 1 20.5 10t8.5 22v59q0 15 -11 24q-37 32 -54.5 94.5t-17.5 128.5q0 136 125 136q118 0 118 -136
q0 -66 -26 -132.5t-64 -96.5q-12 -10 -12 -25v-55q0 -6 2.5 -11.5t6 -10t9 -7t11.5 -3.5q50 -6 148 -45h3q1 -1 2 -1q-97 -65 -214 -65q-122 0 -223 72zM765 11q0 23 -20 31q-80 31 -137 43v14q48 45 75 121.5t27 147.5q0 64 -21.5 108.5t-62 68t-98.5 23.5q-89 0 -139 -53
t-50 -147q0 -17 1 -36t6 -51.5t13.5 -61t24.5 -59.5t38 -53v-17q-61 -11 -145 -41q-11 -3 -16.5 -13.5t-3.5 -21.5q-60 53 -94.5 127.5t-34.5 158.5q0 159 112.5 271.5t271.5 112.5t271.5 -112.5t112.5 -271.5q0 -85 -35 -160t-96 -129z" />
    <glyph glyph-name="uniE689" unicode="&#xe689;" 
d="M928 268h-832q-13 0 -22.5 9.5t-9.5 22.5t9.5 22.5t22.5 9.5h832q13 0 22.5 -9.5t9.5 -22.5t-9.5 -22.5t-22.5 -9.5zM832 -116h-192q-13 0 -22.5 9.5t-9.5 22.5t9.5 22.5t22.5 9.5h192q13 0 22.5 9.5t9.5 22.5v160q0 13 9.5 22.5t22.5 9.5t22.5 -9.5t9.5 -22.5v-160
q0 -40 -28 -68t-68 -28zM352 -116h-160q-40 0 -68 28t-28 68v160q0 13 9.5 22.5t22.5 9.5t22.5 -9.5t9.5 -22.5v-160q0 -13 9.5 -22.5t22.5 -9.5h160q13 0 22.5 -9.5t9.5 -22.5t-9.5 -22.5t-22.5 -9.5zM128 428q-13 0 -22.5 9.5t-9.5 22.5v160q0 40 28 68t68 28h160
q13 0 22.5 -9.5t9.5 -22.5t-9.5 -22.5t-22.5 -9.5h-160q-13 0 -22.5 -9.5t-9.5 -22.5v-160q0 -13 -9.5 -22.5t-22.5 -9.5zM896 428q-13 0 -22.5 9.5t-9.5 22.5v160q0 13 -9.5 22.5t-22.5 9.5h-192q-13 0 -22.5 9.5t-9.5 22.5t9.5 22.5t22.5 9.5h192q40 0 68 -28t28 -68v-160
q0 -13 -9.5 -22.5t-22.5 -9.5z" />
    <glyph glyph-name="uniE68A" unicode="&#xe68a;" 
d="M512 204q-40 0 -68 28t-28 68t28 68t68 28t68 -28t28 -68t-28 -68t-68 -28zM512 332q-13 0 -22.5 -9.5t-9.5 -22.5t9.5 -22.5t22.5 -9.5t22.5 9.5t9.5 22.5t-9.5 22.5t-22.5 9.5zM631 -148q-16 0 -26 13l-73 101q-11 -1 -20 -1t-20 1l-73 -101q-13 -18 -35 -12
q-52 15 -98 41q-8 4 -12.5 13.5t-3.5 18.5l20 124q-8 6 -15 13t-13 15l-124 -20q-6 -1 -12.5 1t-11.5 6t-8 9q-26 46 -41 98q-1 7 -0.5 13t4 12t8.5 10l101 73q-1 11 -1 20v10q0 5 1 10l-101 73q-8 6 -11.5 15.5t-0.5 19.5q15 52 41 98q10 19 32 16l124 -20q13 15 28 28
l-20 124q-3 22 16 32q46 26 98 41q22 6 35 -12l73 -101q7 1 14 1h12q7 0 14 -1l73 101q13 18 35 12q52 -15 98 -41q19 -10 16 -32l-20 -124q15 -13 28 -28l124 20q22 3 32 -16q9 -16 16.5 -32t13.5 -32.5t11 -33.5q6 -22 -12 -35l-101 -73q1 -11 1 -20q0 -10 -1 -20l101 -73
q18 -13 12 -35q-4 -13 -8.5 -25.5t-9.5 -24.5t-10.5 -24t-12.5 -24q-10 -19 -32 -16l-124 20q-13 -15 -28 -28l20 -124q3 -22 -16 -32q-46 -26 -98 -41q-5 -1 -9 -1zM337 -61q11 -5 21.5 -9.5t22.5 -8.5l70 97q11 15 30 13q31 -4 62 0q19 2 30 -13l70 -97q12 4 22.5 8.5
t21.5 9.5l-19 119q-2 18 12 30q12 9 23.5 20.5t20.5 23.5q4 4 8.5 7t10.5 4t11 1l119 -19q5 11 9.5 21.5t8.5 22.5l-97 70q-15 11 -13 30q2 18 2 31q0 8 -0.5 15.5t-1.5 15.5q-2 19 13 30l97 70q-8 23 -18 44l-119 -19q-8 -1 -16 2t-14 10q-19 25 -44 44q-14 12 -12 30
l19 119q-11 5 -21.5 9.5t-22.5 8.5l-70 -97q-11 -15 -30 -13q-31 4 -62 0q-19 -2 -30 13l-70 97q-5 -2 -9.5 -3.5t-8.5 -3.5t-8.5 -3.5t-9 -3.5t-8.5 -4l19 -119q1 -8 -2 -16t-10 -14q-25 -19 -44 -44q-12 -14 -30 -12l-119 19q-10 -21 -18 -44l97 -70q15 -11 13 -30
q-2 -17 -2 -31t2 -31v-7q0 -3 -1 -6.5t-3 -6.5t-4 -5.5t-5 -4.5l-97 -70q3 -8 6 -15t6 -14.5t6 -14.5l119 19q8 1 16 -2t14 -10q19 -25 44 -44q14 -12 12 -30z" />
    <glyph glyph-name="uniE68B" unicode="&#xe68b;" 
d="M832 172q-19 0 -41 -7l-178 357q13 13 20 30t7 36q0 40 -28 68t-68 28t-68 -28t-28 -68l2 -18l-164 -191q-30 17 -62 17q-53 0 -90.5 -37.5t-37.5 -90.5t37.5 -90.5t90.5 -37.5t90.5 37.5t37.5 90.5q0 36 -19 67l152 178q27 -21 59 -21q2 0 12 1l181 -363
q-33 -37 -33 -86q0 -53 37.5 -90.5t90.5 -37.5t90.5 37.5t37.5 90.5t-37.5 90.5t-90.5 37.5zM224 204q-26 0 -45 19t-19 45t19 45t45 19t45 -19t19 -45t-19 -45t-45 -19zM512 588q0 13 9.5 22.5t22.5 9.5t22.5 -9.5t9.5 -22.5t-9.5 -22.5t-22.5 -9.5t-22.5 9.5t-9.5 22.5z
M832 -20q-26 0 -45 19t-19 45t19 45t45 19t45 -19t19 -45t-19 -45t-45 -19z" />
    <glyph glyph-name="uniE68C" unicode="&#xe68c;" 
d="M896 492h-512q-13 0 -22.5 9.5t-9.5 22.5t9.5 22.5t22.5 9.5h512q13 0 22.5 -9.5t9.5 -22.5t-9.5 -22.5t-22.5 -9.5zM896 268h-512q-13 0 -22.5 9.5t-9.5 22.5t9.5 22.5t22.5 9.5h512q13 0 22.5 -9.5t9.5 -22.5t-9.5 -22.5t-22.5 -9.5zM896 44h-512q-13 0 -22.5 9.5
t-9.5 22.5t9.5 22.5t22.5 9.5h512q13 0 22.5 -9.5t9.5 -22.5t-9.5 -22.5t-22.5 -9.5zM192 428q-40 0 -68 28t-28 68t28 68t68 28t68 -28t28 -68t-28 -68t-68 -28zM192 556q-13 0 -22.5 -9.5t-9.5 -22.5t9.5 -22.5t22.5 -9.5t22.5 9.5t9.5 22.5t-9.5 22.5t-22.5 9.5zM192 204
q-40 0 -68 28t-28 68t28 68t68 28t68 -28t28 -68t-28 -68t-68 -28zM192 332q-13 0 -22.5 -9.5t-9.5 -22.5t9.5 -22.5t22.5 -9.5t22.5 9.5t9.5 22.5t-9.5 22.5t-22.5 9.5zM192 -20q-40 0 -68 28t-28 68t28 68t68 28t68 -28t28 -68t-28 -68t-68 -28zM192 108q-13 0 -22.5 -9.5
t-9.5 -22.5t9.5 -22.5t22.5 -9.5t22.5 9.5t9.5 22.5t-9.5 22.5t-22.5 9.5z" />
    <glyph glyph-name="uniE68D" unicode="&#xe68d;" 
d="M798 505q-5 7 -13 10.5t-16.5 2.5t-15.5 -6q-11 -7 -13 -20.5t6 -23.5q54 -76 54 -168q0 -45 -14 -88t-40 -80q-8 -10 -6 -23.5t13 -20.5q4 -3 9 -4.5t10 -1.5q16 0 26 13q66 92 66 205t-66 205zM271 512q-11 8 -24 6t-21 -13q-66 -92 -66 -205t66 -205q11 -13 26 -13
q11 0 19 6q11 7 13 20.5t-6 23.5q-54 76 -54 168q0 18 2 36t6.5 35t11 33.5t15.5 32.5t19 31q4 5 5.5 11.5t0.5 12.5t-4.5 11.5t-8.5 8.5zM873 616q-6 7 -14 9.5t-16.5 1t-14.5 -7.5q-10 -9 -11 -22t8 -23q103 -118 103 -274q0 -30 -4.5 -59.5t-13 -58.5t-21 -56t-29 -52
t-35.5 -48q-9 -10 -8 -23t11 -22q9 -8 21 -8q14 1 24 11q57 66 88 147.5t31 168.5q0 43 -8 86t-23 83t-37.5 77t-50.5 70zM96 300q0 156 103 274q9 10 8 23t-10 22q-7 6 -15.5 7.5t-16.5 -1t-14 -9.5q-57 -66 -88 -147.5t-31 -168.5t31 -168.5t88 -147.5q5 -5 11.5 -8
t12.5 -3q12 0 21 8q10 9 11 22t-8 23q-103 118 -103 274zM693 169l2 2l4 5q1 3 6 10q4 7 5 9q1 3 5 11l1 2l3 6q0 1 1 3t1 3t1 3t1 3t1 3q2 4 2 5q1 4 3 13q1 1 1.5 2.5t0.5 3t1 3.5v2t0.5 5t0.5 3.5t1 3.5q0 1 0.5 3.5t0.5 4.5q0 5 0.5 10.5t0.5 11.5q0 93 -65.5 158.5
t-158.5 65.5t-158.5 -65.5t-65.5 -158.5q0 -12 1 -24v-1l4 -22v0l6 -22v-1q4 -11 8 -21q1 0 1 -1v-1l10 -18q0 -1 1 -3q6 -9 11 -16q1 -1 1.5 -2t1.5 -2q6 -8 11 -14l4 -4l13 -13l1 -1l1 -1v0q40 -35 90 -49q-9 -13 -19 -23q-9 -10 -8.5 -23t9.5 -23q5 -4 10.5 -6.5
t11.5 -2.5q14 0 23 10q26 27 42 60q2 0 4 1h3q3 0 5.5 0.5t4.5 0.5t4 0.5t4 0.5t4 1q7 1 10 2q3 0 5.5 1t5.5 2q7 2 10 2q4 2 11 4q6 3 9 4l4 2l3 1q1 1 4 2q6 3 8 5q3 1 9 5q1 0 1 1q7 4 9 5q3 3 9 7l2 1l5 5q3 2 7 6l1 1q1 1 3 2.5t3 2.5l2 2q3 3 8 9t6 7q2 3 6 8q1 1 1 2
z" />
    <glyph glyph-name="uniE68E" unicode="&#xe68e;" 
d="M798 505q-5 7 -13 10.5t-16.5 2.5t-15.5 -6q-11 -7 -13 -20.5t6 -23.5q54 -76 54 -168q0 -45 -14 -88t-40 -80q-8 -10 -6 -23.5t13 -20.5q4 -3 9 -4.5t10 -1.5q16 0 26 13q66 92 66 205t-66 205zM271 512q-11 8 -24 6t-21 -13q-66 -92 -66 -205t66 -205q11 -13 26 -13
q11 0 19 6q11 7 13 20.5t-6 23.5q-54 76 -54 168q0 18 2 36t6.5 35t11 33.5t15.5 32.5t19 31q4 5 5.5 11.5t0.5 12.5t-4.5 11.5t-8.5 8.5zM873 616q-6 7 -14 9.5t-16.5 1t-14.5 -7.5q-10 -9 -11 -22t8 -23q103 -118 103 -274q0 -30 -4.5 -59.5t-13 -58.5t-21 -56t-29 -52
t-35.5 -48q-9 -10 -8 -23t11 -22q9 -8 21 -8q14 1 24 11q57 66 88 147.5t31 168.5q0 43 -8 86t-23 83t-37.5 77t-50.5 70zM96 300q0 156 103 274q9 10 8 23t-10 22q-7 6 -15.5 7.5t-16.5 -1t-14 -9.5q-57 -66 -88 -147.5t-31 -168.5t31 -168.5t88 -147.5q5 -5 11.5 -8
t12.5 -3q12 0 21 8q10 9 11 22t-8 23q-103 118 -103 274zM512 524q-93 0 -158.5 -65.5t-65.5 -158.5q0 -16 2 -31.5t6.5 -30.5t11 -29t14.5 -27.5t18.5 -25.5t22.5 -23q10 -8 23 -7.5t22 10.5q6 6 7.5 14.5t-1 16.5t-9.5 14q-17 15 -28.5 34t-18 41t-6.5 44q0 66 47 113
t113 47t113 -47t47 -113t-47 -113t-113 -47h-11q-4 0 -7 -0.5t-6 -2t-6 -3.5l-4 -4q-3 -2 -4.5 -5t-2.5 -6q-6 -16 -15 -31t-22 -27q-3 -4 -5.5 -8.5t-3 -9.5t0.5 -10t3 -9.5t6 -8.5q3 -3 6.5 -5t7.5 -3t8.5 -1t8.5 1t7.5 3.5t6.5 5.5q26 26 42 60q59 3 108 33.5t77.5 81
t28.5 109.5q0 93 -65.5 158.5t-158.5 65.5z" />
    <glyph glyph-name="uniE690" unicode="&#xe690;" 
d="M512 748q-185 0 -316.5 -131.5t-131.5 -316.5t131.5 -316.5t316.5 -131.5t316.5 131.5t131.5 316.5t-131.5 316.5t-316.5 131.5zM512 -20q-20 0 -34 14t-14 34t14 34t34 14q13 0 24 -6.5t17.5 -17.5t6.5 -24q0 -32 -29 -45q-10 -3 -19 -3zM601 307q-19 -19 -28.5 -29
t-19 -26t-9.5 -28v-54q0 -13 -9.5 -22.5t-22.5 -9.5t-22.5 9.5t-9.5 22.5v54q0 25 13 50t25.5 39.5t36.5 38.5q18 17 26.5 26.5t17.5 23.5t9 24q0 13 -3.5 25.5t-9.5 23t-15 19.5t-19.5 15.5t-23 10t-25.5 3.5q-40 0 -68 -27.5t-28 -67.5q0 -13 -9.5 -22.5t-22.5 -9.5
q-7 0 -12.5 2.5t-10 7t-7 10.5t-2.5 12q0 32 12.5 61.5t34 51t51.5 34t62 12.5q66 0 113 -47t47 -114q0 -17 -5.5 -33t-18 -32.5t-21.5 -26.5t-26 -27z" />
    <glyph glyph-name="uniE691" unicode="&#xe691;" 
d="M512 28zM464 28q0 20 14 34t34 14q10 0 19 -4t15 -10.5t10 -15.5t4 -18q0 -13 -6.5 -24.5t-17.5 -17.5t-24 -6q-20 0 -34 14t-14 34zM512 -148q-185 0 -316.5 131.5t-131.5 316.5t131.5 316.5t316.5 131.5t316.5 -131.5t131.5 -316.5t-131.5 -316.5t-316.5 -131.5z
M512 684q-104 0 -192.5 -51.5t-140 -140t-51.5 -192.5t51.5 -192.5t140 -140t192.5 -51.5t192.5 51.5t140 140t51.5 192.5t-51.5 192.5t-140 140t-192.5 51.5zM512 138q-9 0 -16 4.5t-11.5 12t-4.5 15.5v54q0 25 13 50t25.5 39.5t36.5 38.5q18 18 26.5 27t17.5 23t9 24
q0 13 -3.5 25.5t-9.5 23t-15 19.5t-19.5 15.5t-23 10t-25.5 3.5q-40 0 -68 -27.5t-28 -67.5q0 -13 -9.5 -22.5t-22.5 -9.5q-7 0 -12.5 2.5t-10 7t-7 10.5t-2.5 12q0 32 12.5 61.5t34 51t51.5 34t62 12.5q66 0 113 -47t47 -114q0 -22 -12 -45.5t-24 -37t-35 -36.5
q-19 -19 -28.5 -29t-19 -26t-9.5 -28v-54q0 -13 -9.5 -22.5t-22.5 -9.5z" />
    <glyph glyph-name="uniE697" unicode="&#xe697;" 
d="M953 459v1v1q-1 3 -2 5l-75 187q-10 29 -35 45.5t-59 16.5h-527q-21 0 -39.5 -7.5t-31.5 -21t-20 -32.5l-80 -190q0 -1 -0.5 -2t-0.5 -3q-3 -6 -4.5 -13t-2.5 -14t-1.5 -14t-0.5 -13q0 -49 25 -91t68 -65q18 -9 38.5 -14t44.5 -5q82 0 134 63q53 -62 134 -63q81 1 133 63
q52 -62 135 -62q16 0 30.5 2t28 6.5t25.5 11.5q42 23 66.5 64.5t24.5 89.5q0 28 -8 54zM766 428h-512q-4 0 -8 1t-7.5 3t-6.5 5t-5 6.5t-3.5 8t-1.5 8.5q0 9 4.5 16t12 11.5t15.5 4.5h512q5 0 9 -1t7.5 -3t6.5 -5t5 -6.5t3 -8t1 -8.5q0 -13 -9 -22.5t-23 -9.5zM895 172
q0 13 -9.5 22.5t-22.5 9.5q-2 0 -4 -0.5t-5 -1.5q-18 -7 -39 -10.5t-38 -2.5q-79 4 -126 44q-57 -48 -133 -49q-82 0 -134 44q-27 -23 -61.5 -35t-72.5 -12q-32 0 -76 16q0 1 -1 1h-1q-1 0 -2 1q-1 0 -2 1h-7q-13 0 -22.5 -9t-9.5 -23v-171q0 -22 11 -41t30 -30t41 -11h602
q34 0 58 24.5t24 57.5v175z" />
    <glyph glyph-name="uniE699" unicode="&#xe699;" 
d="M800 -116h-576q-40 0 -68 28t-28 68v640q0 40 28 68t68 28h576q40 0 68 -28t28 -68v-640q0 -40 -28 -68t-68 -28zM224 652q-13 0 -22.5 -9.5t-9.5 -22.5v-640q0 -13 9.5 -22.5t22.5 -9.5h576q13 0 22.5 9.5t9.5 22.5v640q0 13 -9.5 22.5t-22.5 9.5h-576zM641 267h-353
q-3 0 -5.5 0.5t-5 1.5t-4.5 2t-4 3l-4 2q-2 2 -3 4t-2.5 4.5t-2 4.5t-1 5t-0.5 5q0 24 22 31l10 1h353q4 0 7.5 -1t6.5 -2.5t6 -3.5t5 -5t3.5 -6t2.5 -6.5t1 -7.5q0 -13 -9.5 -22.5t-22.5 -9.5zM735 76h-447q-14 0 -23 9.5t-9 23t9 22.5t23 9h447q13 0 22.5 -9t9.5 -22.5
t-9.5 -23t-22.5 -9.5zM304 507zM256 507q0 13 6.5 24t17.5 17.5t24 6.5q20 0 34 -14t14 -34q0 -13 -6.5 -24t-17.5 -17.5t-24 -6.5q-20 0 -34 14t-14 34zM511 507zM463 507q0 20 14 34t34 14q13 0 24 -6.5t17.5 -17.5t6.5 -24t-6.5 -24t-17.5 -17.5t-24 -6.5q-20 0 -34 14
t-14 34zM719 507zM671 507q0 13 6.5 24t17.5 17.5t24 6.5q7 0 13 -2t11.5 -5t10 -7.5t7.5 -9.5t4.5 -11.5t1.5 -12.5q0 -13 -6.5 -24t-17.5 -17.5t-24 -6.5t-24 6.5t-17.5 17.5t-6.5 24z" />
    <glyph glyph-name="uniE69A" unicode="&#xe69a;" 
d="M512 745q-40 0 -79.5 -7.5t-77 -21.5t-71.5 -34q-15 16 -32.5 28t-37.5 20.5t-42.5 13t-46.5 4.5q-19 0 -28 -16.5t1 -32.5q31 -50 41 -128q-4 -16 -18.5 -50t-18.5 -45q-38 -102 -38 -179q0 -73 22.5 -141.5t64 -123.5t97 -96.5t123.5 -64t141 -22.5q91 0 174 35.5
t143 95.5t95.5 143t35.5 174t-35.5 174t-95.5 142.5t-143 95.5t-174 36zM576 332q0 -20 -14 -34t-34 -14t-34 14t-14 34v64q0 20 14 34t34 14t34 -14t14 -34v-64zM767 332q0 -20 -14 -34t-34 -14q-13 0 -24 6.5t-17.5 17.5t-6.5 24v64q0 20 14 34t34 14q13 0 24 -6.5
t17.5 -17.5t6.5 -24v-64z" />
    <glyph glyph-name="uniE69B" unicode="&#xe69b;" 
d="M320 428zM256 428q0 26 19 45t45 19t45 -19t19 -45t-19 -45t-45 -19t-45 19t-19 45zM843 -84h-662q-31 0 -58.5 15.5t-43 43t-15.5 58.5v534q0 48 34.5 82.5t82.5 34.5h662q48 0 82.5 -34.5t34.5 -82.5v-534q0 -48 -34.5 -82.5t-82.5 -34.5zM181 620q-22 0 -37.5 -15.5
t-15.5 -37.5v-534q0 -22 15.5 -37.5t37.5 -15.5h662q22 0 37.5 15.5t15.5 37.5v534q0 22 -15.5 37.5t-37.5 15.5h-662zM224 43h-4q-1 0 -2.5 0.5t-3.5 0.5q-12 4 -18 16t-3 24q2 7 6.5 17.5t15 34.5t25.5 45t34.5 42t46.5 33.5t56 11.5q35 -1 92 -18q24 -7 35.5 -10t35.5 -6
t39 2q6 1 11 4.5t9 8.5t8 14t7 18.5t8 24.5q8 26 13.5 40.5t20 39t31 38t45.5 24.5t65 11q13 0 22.5 -9.5t9.5 -22.5t-9.5 -22.5t-22.5 -9.5q-28 0 -46.5 -6.5t-31 -23t-19.5 -32.5t-17 -46q-5 -16 -8 -24.5t-9 -23t-12.5 -23.5t-15.5 -19t-21.5 -16t-27.5 -8
q-26 -2 -39.5 -3t-36 3t-33 7t-29.5 9q-13 3 -19.5 5t-17.5 4.5t-20.5 4t-18.5 1.5h-1q-22 0 -43 -15.5t-36 -39.5t-25 -45t-16 -38q-6 -23 -30 -23z" />
    <glyph glyph-name="uniE69C" unicode="&#xe69c;" 
d="M608.5 -148q-13.5 0 -23 9.5t-9.5 22.5v480q0 6 2.5 11.5t6.5 9.5l208 235h-563l210 -235q8 -9 8 -21v-289l51 -41q10 -8 11.5 -21.5t-7 -23.5t-21.5 -11.5t-24 6.5l-62 51q-2 1 -3.5 2.5t-2.5 3.5t-2 3.5t-2 3.5t-1.5 4t-0.5 4v4v292l-249 279q-14 15 -5 34q1 2 2.5 4.5
t3 4.5t4 3.5t4.5 2.5t4.5 2t5 1.5t5.5 0.5h706q21 0 29.5 -19t-5.5 -34l-249 -279v-468q0 -13 -9 -22.5t-22.5 -9.5z" />
    <glyph glyph-name="uniE69D" unicode="&#xe69d;" 
d="M886 130q-11 9 -24 7.5t-21.5 -12t-7 -23.5t12.5 -21q17 -14 34.5 -47t17.5 -55q0 -27 -13 -49.5t-35.5 -35.5t-49.5 -13q-51 0 -80 41q-65 93 -96 126q-17 18 -39.5 30.5t-41.5 18.5t-40 9t-28.5 3.5t-14.5 0.5q-97 20 -156 89.5t-46 149.5q12 84 92 133q83 51 188 35
t170 -89q62 -71 49 -154q-1 -6 -3 -12l-2 -12q-2 -6 -4.5 -12t-5 -11.5t-5.5 -11t-4 -12t1 -12.5t5.5 -11t9.5 -8q12 -7 24.5 -3.5t19.5 15.5q21 38 27 81q17 112 -64 205q-39 44 -92.5 72.5t-115.5 37.5q-18 3 -35.5 4t-35 0t-34.5 -3t-33.5 -6.5t-32.5 -10t-31 -12.5
t-29 -16q-51 -31 -83 -77t-40 -100q-16 -106 57.5 -196.5t195.5 -115.5h5q6 0 14.5 -1t19.5 -2.5t23.5 -4.5t24.5 -7.5t23.5 -11.5t19.5 -16q16 -16 39 -47t38.5 -53.5t17.5 -23.5q15 -19 35.5 -33.5t44 -22t48.5 -7.5q67 0 114.5 47.5t47.5 114.5q0 56 -46 119
q-16 21 -30 32zM128 491zM64 491q0 27 19 45.5t45 18.5q18 0 32.5 -8.5t23 -23t8.5 -32.5q0 -26 -18.5 -45t-45.5 -19q-10 0 -20 3.5t-17.5 9t-13.5 13.5t-9.5 18t-3.5 20zM273 584q-18 0 -31 11q-15 13 -17 32.5t11 34.5q2 2 4.5 5t11 11t18 15t24.5 16t31 16t37.5 13t44 9
t50 2t56.5 -7q20 -4 31 -20.5t7 -36t-20.5 -30.5t-36.5 -7q-24 5 -47.5 5t-41 -3.5t-34 -9.5t-26.5 -12t-19 -13t-12 -10l-5 -5q-7 -8 -16.5 -12t-19.5 -4z" />
    <glyph glyph-name="uniE69E" unicode="&#xe69e;" 
d="M826 257l-288 289q-9 9 -23 9l-1 1h-2h-4h-2l-4 -2q-1 0 -3 -1q-6 -2 -11 -7l-259 -259q-10 -9 -10 -22.5t9 -22.5q4 -3 7.5 -5t7.5 -3.5t8 -1.5q13 0 23 10l206 206v-564q0 -13 9.5 -22.5t22.5 -9.5t22.5 9.5t9.5 22.5v565l236 -237q5 -5 11 -7.5t12 -2.5q13 0 22.5 9.5
t9.5 22.5t-9 23zM864 620h-704q-13 0 -22.5 9.5t-9.5 22.5t9.5 22.5t22.5 9.5h704q13 0 22.5 -9.5t9.5 -22.5t-9.5 -22.5t-22.5 -9.5z" />
    <glyph glyph-name="uniE69F" unicode="&#xe69f;" 
d="M512 -148q-185 0 -316.5 131.5t-131.5 316.5t131.5 316.5t316.5 131.5t316.5 -131.5t131.5 -316.5t-131.5 -316.5t-316.5 -131.5zM512 684q-159 0 -271.5 -112.5t-112.5 -271.5t112.5 -271.5t271.5 -112.5t271.5 112.5t112.5 271.5t-112.5 271.5t-271.5 112.5z
M694.5 289.5q-9.5 9.5 -23 9.5t-22.5 -9l-105 -104v307q0 3 -0.5 5.5t-1.5 5t-2.5 5t-3 4.5t-3.5 4t-4.5 3.5t-5 2.5t-5.5 1.5t-6 0.5q-13 0 -22.5 -9.5t-9.5 -22.5v-309l-105 107q-6 6 -14.5 8.5t-16.5 0t-15 -8.5q-4 -4 -6.5 -10t-2.5 -12.5t2.5 -12.5t6.5 -10l160 -161
q9 -10 23 -10q13 0 22 9v1l160 159q10 10 10 23t-9.5 22.5z" />
    <glyph glyph-name="uniE6A0" unicode="&#xe6a0;" 
d="M512 -148q-185 0 -316.5 131.5t-131.5 316.5t131.5 316.5t316.5 131.5t316.5 -131.5t131.5 -316.5t-131.5 -316.5t-316.5 -131.5zM512 684q-159 0 -271.5 -112.5t-112.5 -271.5t112.5 -271.5t271.5 -112.5t271.5 112.5t112.5 271.5t-112.5 271.5t-271.5 112.5zM694 354
l-158 160q-7 7 -16.5 9t-18.5 -2l-1 -1h-1q-6 -3 -8 -6v0l-160 -159q-9 -9 -9 -22.5t9 -22.5q1 -2 3 -3l2 -2q2 -1 4 -1.5t3.5 -1t3.5 -1t3.5 -1t3.5 -0.5q13 0 22 10l104 103v-305q0 -13 9.5 -22.5t22.5 -9.5t22.5 9.5t9.5 22.5v307l105 -106q9 -10 23 -10q13 1 22 9
q10 10 10 23t-10 23z" />
    <glyph glyph-name="uniE6A3" unicode="&#xe6a3;" 
d="M761 280l1 1t1 2q2 4 3 9t1.5 10t-0.5 10t-2.5 9.5t-4.5 9t-7 7.5l-353 334q-10 9 -22 12t-24.5 -0.5t-21.5 -13.5q-5 -5 -8.5 -12t-4.5 -14.5t0.5 -15t5 -14t9.5 -12.5l317 -299l-316 -305q-14 -13 -14.5 -33t13.5 -35q7 -7 16 -10.5t19 -3.5q19 0 33 13l350 338l1 1v1
q1 0 1 1h1q2 2 5 7q1 2 1 3z" />
    <glyph glyph-name="uniE6A4" unicode="&#xe6a4;" 
d="M939.5 555.5q-12.5 4.5 -24.5 -1t-16 -18.5l-25 -69q-45 100 -133 166q-91 68 -202.5 80.5t-214.5 -30.5t-172 -134q-50 -66 -70.5 -145.5t-9.5 -162.5q12 -82 54.5 -153t110.5 -121q55 -41 119.5 -62t131.5 -21q98 0 187.5 43t149.5 123q9 12 17.5 24.5t15.5 25.5
t13 26.5t11.5 27.5t9.5 28t7 29q3 13 -4 24t-20 14q-8 2 -16.5 -1t-14 -9t-7.5 -15q-16 -74 -63 -135q-35 -46 -82 -78.5t-99.5 -47.5t-107.5 -15t-109.5 18t-100.5 52q-57 43 -93 102.5t-46 129.5q-21 144 67 261q58 76 145.5 113t182 26t172.5 -68q42 -32 73.5 -74.5
t49.5 -92.5l-110 43q-13 5 -25 -0.5t-17 -17.5q-2 -6 -2 -12.5t2.5 -12t7 -10t10.5 -7.5l162 -63q6 -2 12 -2h1h2l2 -1q4 0 8 1t7 3t6 4.5t5.5 6t3.5 7.5l58 161q4 12 -1.5 24t-18 16.5z" />
    <glyph glyph-name="uniE6A5" unicode="&#xe6a5;" 
d="M418 588q0 40 28 68t67.5 28t68 -28t28.5 -68t-28.5 -68t-68 -28t-67.5 28t-28 68zM418 300q0 40 28 68t68 28q26 0 48 -13t35 -35t13 -48q0 -40 -28.5 -68t-67.5 -28q-26 0 -48.5 13t-35 35t-12.5 48zM418 12q0 40 28 68t67.5 28t68 -28t28.5 -68t-28.5 -68t-68 -28
t-67.5 28t-28 68z" />
    <glyph glyph-name="uniE6A6" unicode="&#xe6a6;" 
d="M928 588h-160v64q0 40 -28 68t-67 28h-321q-40 0 -68 -28t-28 -68v-64h-160q-13 0 -22.5 -9.5t-9.5 -22.5t9.5 -22.5t22.5 -9.5h832q13 0 22.5 9.5t9.5 22.5t-9.5 22.5t-22.5 9.5zM800 460h-576q-13 0 -23 -9q-9 -9 -9 -23v-480q0 -40 28 -68t68 -28h448q40 0 68 28
t28 68v480q0 13 -9.5 22.5t-22.5 9.5zM448 12q0 -13 -9.5 -22.5t-22.5 -9.5t-22.5 9.5t-9.5 22.5v352q0 13 9.5 22.5t22.5 9.5t22.5 -9.5t9.5 -22.5v-352zM640 12q0 -13 -9.5 -22.5t-22.5 -9.5t-22.5 9.5t-9.5 22.5v352q0 13 9.5 22.5t22.5 9.5t22.5 -9.5t9.5 -22.5v-352z
" />
    <glyph glyph-name="uniE6AC" unicode="&#xe6ac;" 
d="M986 222q-8 11 -21 13t-24 -6l-57 -41q15 55 15 111q0 38 -6.5 75t-19.5 70.5t-31 65t-41 58.5t-50 50t-58.5 41t-65 31t-70.5 19.5t-75 6.5q-113 0 -209 -56t-152 -152t-56 -209t56 -209t152 -152t209 -56q111 0 207 55l10 4q27 16 51 36q10 8 11.5 21t-7 23.5
t-21.5 11.5t-24 -7q-17 -14 -40 -28l-2 -1q-3 -1 -4 -1q-83 -50 -181 -50q-95 0 -176.5 47.5t-129 128.5t-47.5 177q0 48 13 93.5t35.5 84.5t55.5 71.5t71.5 55.5t84 35.5t93.5 12.5q96 0 177.5 -47.5t128.5 -128.5t47 -177q0 -66 -24 -128l-45 109q-5 12 -17.5 17t-24.5 0
t-17 -17.5t0 -24.5l72 -173q0 -1 3 -5v-1h1v-1l5 -5q2 -2 5 -3l1 -1h1q6 -3 11 -3q0 -1 0.5 -0.5t1.5 0.5v-1h1h1q0 1 1 1q3 0 7 1h1q4 2 7 4h1l152 109q10 8 12.5 21t-5.5 24zM607 438q9 9 9.5 22t-9 22.5t-22.5 10t-23 -9.5l-80 -77l-79 77q-10 10 -23 9.5t-22.5 -10
t-9 -22.5t9.5 -22l90 -87v-19h-64q-13 0 -22.5 -9.5t-9.5 -22.5t9.5 -22.5t22.5 -9.5h64v-32h-64q-13 0 -22.5 -9.5t-9.5 -22.5t9.5 -22.5t22.5 -9.5h64v-67q0 -14 9.5 -23t22.5 -9t22.5 9t9.5 23v67h64q13 0 22.5 9.5t9.5 22.5t-9.5 22.5t-22.5 9.5h-64v32h64
q13 0 22.5 9.5t9.5 22.5t-9.5 22.5t-22.5 9.5h-64v14z" />
    <glyph glyph-name="uniE6AF" unicode="&#xe6af;" 
d="M353 -20q-27 0 -45.5 -18.5t-18.5 -45.5t18.5 -45.5t45.5 -18.5q17 0 31.5 8.5t23.5 23.5t9 32q0 27 -19 45.5t-45 18.5zM801 -20q-27 0 -45.5 -18.5t-18.5 -45.5t18.5 -45.5t45 -18.5t45.5 18.5t19 45.5t-19 45.5t-45 18.5zM864 12h-520q-17 0 -33 6.5t-28 17.5
t-20.5 26.5t-10.5 32.5l-54 382l-31 179q-2 11 -11 19.5t-19 8.5h-41q-13 0 -22.5 9.5t-9.5 22.5t9.5 22.5t22.5 9.5h41q35 0 62 -24t31 -59l31 -178l54 -384q2 -11 10.5 -19t18.5 -8h520q13 0 22.5 -9.5t9.5 -22.5t-9.5 -22.5t-22.5 -9.5zM384 140q-12 0 -21.5 8.5
t-10.5 21.5q0 8 3.5 16t10.5 12.5t16 5.5l434 32q12 0 21 8t10 19l51 288q1 8 -1.5 16.5t-7.5 13.5q-3 3 -6.5 5t-8.5 2h-554q-13 0 -22.5 9.5t-9.5 22.5t9.5 22.5t22.5 9.5h554q12 0 23.5 -3.5t21.5 -9.5t18 -16q30 -33 24 -81l-51 -289q-4 -33 -30.5 -57t-61.5 -24
l-431 -32h-3z" />
    <glyph glyph-name="uniE6B0" unicode="&#xe6b0;" 
d="M384 -116h-192q-40 0 -68 28t-28 68v192q0 40 28 68t68 28h192q40 0 68 -28t28 -68v-192q0 -40 -28 -68t-68 -28zM192 204q-13 0 -22.5 -9.5t-9.5 -22.5v-192q0 -13 9.5 -22.5t22.5 -9.5h192q13 0 22.5 9.5t9.5 22.5v192q0 13 -9.5 22.5t-22.5 9.5h-192zM736 -84
q-13 0 -22.5 9.5t-9.5 22.5v64q0 13 9.5 22.5t22.5 9.5t22.5 -9.5t9.5 -22.5v-64q0 -13 -9.5 -22.5t-22.5 -9.5zM864 -84q-13 0 -22.5 9.5t-9.5 22.5v96q0 13 9.5 22.5t22.5 9.5t22.5 -9.5t9.5 -22.5v-96q0 -13 -9.5 -22.5t-22.5 -9.5zM864 140q-13 0 -22.5 9.5t-9.5 22.5
v64q0 13 9.5 22.5t22.5 9.5t22.5 -9.5t9.5 -22.5v-64q0 -13 -9.5 -22.5t-22.5 -9.5zM736 76q-13 0 -22.5 9.5t-9.5 22.5v128q0 13 9.5 22.5t22.5 9.5t22.5 -9.5t9.5 -22.5v-128q0 -13 -9.5 -22.5t-22.5 -9.5zM608 -84q-13 0 -22.5 9.5t-9.5 22.5v128q0 13 9.5 22.5t22.5 9.5
t22.5 -9.5t9.5 -22.5v-128q0 -13 -9.5 -22.5t-22.5 -9.5zM608 172q-13 0 -22.5 9.5t-9.5 22.5v32q0 13 9.5 22.5t22.5 9.5t22.5 -9.5t9.5 -22.5v-32q0 -13 -9.5 -22.5t-22.5 -9.5zM320 12h-64q-13 0 -22.5 9.5t-9.5 22.5v64q0 13 9.5 22.5t22.5 9.5h64q13 0 22.5 -9.5
t9.5 -22.5v-64q0 -13 -9.5 -22.5t-22.5 -9.5zM384 332h-192q-40 0 -68 28t-28 68v192q0 40 28 68t68 28h192q40 0 68 -28t28 -68v-192q0 -40 -28 -68t-68 -28zM192 652q-13 0 -22.5 -9.5t-9.5 -22.5v-192q0 -13 9.5 -22.5t22.5 -9.5h192q13 0 22.5 9.5t9.5 22.5v192
q0 13 -9.5 22.5t-22.5 9.5h-192zM320 460h-64q-13 0 -22.5 9.5t-9.5 22.5v64q0 13 9.5 22.5t22.5 9.5h64q13 0 22.5 -9.5t9.5 -22.5v-64q0 -13 -9.5 -22.5t-22.5 -9.5zM832 332h-192q-40 0 -68 28t-28 68v192q0 40 28 68t68 28h192q40 0 68 -28t28 -68v-192q0 -40 -28 -68
t-68 -28zM640 652q-13 0 -22.5 -9.5t-9.5 -22.5v-192q0 -13 9.5 -22.5t22.5 -9.5h192q13 0 22.5 9.5t9.5 22.5v192q0 13 -9.5 22.5t-22.5 9.5h-192zM768 460h-64q-13 0 -22.5 9.5t-9.5 22.5v64q0 13 9.5 22.5t22.5 9.5h64q13 0 22.5 -9.5t9.5 -22.5v-64q0 -13 -9.5 -22.5
t-22.5 -9.5z" />
    <glyph glyph-name="uniE6B2" unicode="&#xe6b2;" 
d="M896 585q-13 0 -23 9l-96 96q-9 10 -9 23t9 23q18 17 39 4q4 -2 7 -4l96 -96q9 -10 9 -23t-9.5 -22.5t-22.5 -9.5zM129 587q-13 1 -22 9q-5 5 -7.5 11t-2.5 12t2.5 12t7.5 11l96 96q9 9 22 9t23 -9q2 -3 3.5 -5t2.5 -4.5t2 -5.5t1 -5v-6q0 -3 -1 -6l-2 -4
q-1 -3 -2.5 -5.5t-3.5 -4.5l-96 -96q-9 -9 -23 -9zM727 466q9 10 9 23t-9.5 22.5t-22.5 9.5t-23 -9l-128 -128v-1q-20 10 -41 10t-41 -10v1l-96 96q-5 4 -11 6.5t-12 2.5t-12 -2.5t-11 -6.5q-6 -7 -8 -15t0 -16.5t8 -14.5l96 -96h1q-5 -10 -7.5 -20t-2.5 -21q0 -40 28 -68
t68 -28t68 28t28 68q0 11 -2.5 21t-7.5 20h1zM512 265q-6 0 -12 2.5t-10.5 7t-7 10t-2.5 12.5q0 13 9.5 22.5t22.5 9.5q6 0 12 -2.5t10.5 -7t7 -10.5t2.5 -12q0 -13 -9.5 -22.5t-22.5 -9.5zM507 297zM810 7q56 57 87 132t31 158q0 113 -55.5 208.5t-151.5 151.5t-209 56
t-209 -56t-151.5 -151.5t-55.5 -208.5q0 -84 31.5 -159t88.5 -132l-49 -74q-8 -11 -5 -24t14 -21q4 -2 8.5 -3.5t8.5 -1.5q8 0 15 3.5t12 10.5l44 67q111 -82 248 -82q138 0 249 84l46 -67q3 -4 7 -7.5t9 -5t10 -1.5q10 0 18 6q11 7 13.5 20t-4.5 24zM160 296.5
q0 95.5 47 177t128.5 128.5t176.5 47t176.5 -47t128.5 -128.5t47 -177t-47 -176.5t-128.5 -128t-176.5 -47t-176.5 47t-128.5 128t-47 176.5z" />
    <glyph glyph-name="uniE6B4" unicode="&#xe6b4;" 
d="M608 44q-13 0 -22.5 9.5t-9.5 22.5v352q0 13 9.5 22.5t22.5 9.5t22.5 -9.5t9.5 -22.5v-352q0 -13 -9.5 -22.5t-22.5 -9.5zM416 44q-13 0 -22.5 9.5t-9.5 22.5v352q0 13 9.5 22.5t22.5 9.5t22.5 -9.5t9.5 -22.5v-352q0 -13 -9.5 -22.5t-22.5 -9.5zM928 588h-160v64
q0 40 -28 68t-67 28h-321q-40 0 -68 -28t-28 -68v-64h-160q-13 0 -22.5 -9.5t-9.5 -22.5t9.5 -22.5t22.5 -9.5h832q13 0 22.5 9.5t9.5 22.5t-9.5 22.5t-22.5 9.5zM320 652q0 13 9.5 22.5t22.5 9.5h321q8 0 15.5 -4t11.5 -11.5t4 -16.5v-64h-384v64zM736 -148h-448
q-40 0 -68 28t-28 68v480q0 9 4.5 16.5t11.5 11.5t16 4q13 0 22.5 -9t9.5 -23v-480q0 -13 9.5 -22.5t22.5 -9.5h448q13 0 22.5 9.5t9.5 22.5v479q0 7 2.5 13t7 10t10.5 6.5t12.5 2.5t12.5 -2.5t10 -6.5t6.5 -10t2.5 -13v-479q0 -40 -28 -68t-68 -28z" />
    <glyph glyph-name="uniE6B7" unicode="&#xe6b7;" 
d="M383 -148h-1h-2q-121 11 -201.5 62t-80.5 116q0 25 14 47.5t38.5 40t57.5 32t69 24t76 15.5v13q-34 25 -56 60t-33 78t-14.5 83t-3.5 92q0 109 61 171t169 62q106 0 163 -60t57 -173q0 -52 -16.5 -114t-45.5 -116q-4 -8 -11.5 -12.5t-15.5 -4.5t-16 4q-12 6 -16 18.5
t2 24.5q25 47 40 101.5t15 98.5q0 43 -9.5 74.5t-29 52.5t-49 31.5t-68.5 10.5q-166 0 -166 -169q0 -47 3 -82.5t12 -73t28.5 -66.5t48.5 -48q7 -4 11 -11t4 -16v-57q0 -8 -4 -15t-10.5 -11.5t-14.5 -5.5q-96 -10 -161 -41.5t-65 -57.5q0 -33 63.5 -69.5t159.5 -44.5
q14 -1 22.5 -11.5t7.5 -23.5q-2 -12 -11 -20.5t-21 -8.5zM769 44h-128q-14 0 -23 9.5t-9 22.5t9 22.5t23 9.5h128q13 0 22.5 -9.5t9.5 -22.5q0 -4 -1 -7.5t-2.5 -6.5t-3.5 -6t-5 -5t-6 -3.5t-6.5 -2.5t-7.5 -1zM705 -55h-64q-14 0 -23 9t-9 22.5t9 23t23 9.5h64
q13 0 22.5 -9.5t9.5 -23t-9.5 -22.5t-22.5 -9zM833 -151h-256q-40 0 -68 28t-28 68v163q0 40 28 68t68 28h256q26 0 48 -13t35 -35t13 -48v-163q0 -40 -28.5 -68t-67.5 -28zM577 140q-13 0 -22.5 -9.5t-9.5 -22.5v-163q0 -7 2.5 -13t7 -10t10 -6.5t12.5 -2.5h256
q13 0 22.5 9t9.5 23v163q0 13 -9.5 22.5t-22.5 9.5h-256z" />
    <glyph glyph-name="uniE6B8" unicode="&#xe6b8;" 
d="M980 407l-406 321q-26 21 -62 21t-62 -21l-406 -321q-10 -8 -11.5 -21t6.5 -23.5t21 -12t23 6.5l13 11v-388q0 -40 34.5 -68t74.5 -28h640q37 0 60 26.5t23 69.5v386l12 -9q4 -3 9 -5t11 -2q3 0 5.5 0.5t5.5 1.5t5.5 2.5t4.5 3.5l4 4q2 3 3.5 6.5t2.5 7t1 7t-1 7
t-2.5 6.5t-3.5 6t-5 5zM480 -52v177q0 14 32 14t32 -14v-177h-64zM864 -20q0 -32 -19 -32h-236h-1v1v176q0 31 -25 54.5t-71 23.5q-31 0 -53.5 -12t-32.5 -29t-10 -37v-176v-1h1h-212q-15 0 -30 10.5t-15 21.5v438l329 260q9 7 22.5 7t22.5 -7l330 -261v-437z" />
    <glyph glyph-name="uniE6B9" unicode="&#xe6b9;" 
d="M353 -20q-26 0 -45 -18.5t-19 -45t19 -45.5t45.5 -19t45 19t18.5 45.5t-18.5 45t-45.5 18.5zM801 -20q-26 0 -45 -18.5t-19 -45t19 -45.5t45.5 -19t45 19t18.5 45.5t-18.5 45t-45.5 18.5zM937 624q-25 28 -63 28h-641l-2 13q-3 23 -16.5 42t-34 30t-43.5 11h-40
q-13 0 -22.5 -9.5t-9.5 -22.5t9.5 -22.5t22.5 -9.5h40q5 0 10.5 -2t9.5 -6t7 -9.5t3 -10.5l31 -179l54 -382q3 -17 11 -32.5t20.5 -26.5t28.5 -17.5t33 -6.5h520q13 0 22.5 9.5t9.5 22.5t-9.5 22.5t-22.5 9.5h-520q-7 0 -13.5 3.5t-10.5 10t-5 13.5l-5 38l507 31
q17 0 33 6.5t28.5 17.5t20.5 26t10 32l51 288q3 23 -3.5 44.5t-20.5 37.5z" />
    <glyph glyph-name="uniE6BA" unicode="&#xe6ba;" 
d="M929 725q0 9 -3 19q-45 12 -107 -18q-1 -1 -3.5 -2t-6.5 -3.5t-7 -4.5t-9.5 -5.5t-10 -6t-11.5 -7.5q-19 -11 -24 -14l-1 -1q-107 66 -232 66q-73 0 -141 -22.5t-123 -64t-96.5 -96.5t-64.5 -123.5t-23 -141.5q0 -121 63 -227q-72 -110 -64 -158q1 -3 4.5 -5t7.5 -2.5
t8 -0.5q39 0 101.5 32.5t120.5 75.5t122.5 98t96.5 85t54 51q146 143 247.5 276t101.5 200zM306 201q-21 0 -39.5 11t-29.5 29.5t-11 39.5q0 17 6.5 31.5t17 25.5t25.5 17t31 6q33 0 56.5 -23.5t23.5 -56.5q0 -13 -4 -25t-11.5 -22t-17 -17.5t-22 -11.5t-25.5 -4zM447 425
q-40 0 -68 28.5t-28 67.5q0 26 13 48.5t35 35t48 12.5q40 0 68 -28t28 -67.5t-28 -68t-68 -28.5zM896 533q-99 -146 -278 -322q-31 -31 -72 -69t-126 -107.5t-150 -109.5q112 -73 244 -73q73 0 141.5 22.5t123.5 64t96.5 96.5t64 123.5t22.5 141.5q0 42 -8 83.5t-22.5 78.5
t-35.5 71zM640 12q-7 0 -14.5 1.5t-13.5 5t-12 7.5t-10 10t-7.5 12t-5 13.5t-1.5 14.5q0 26 19 45t45 19q10 0 20 -3t18 -9t14 -14t9 -18t3 -20q0 -17 -8.5 -32t-23.5 -23.5t-32 -8.5z" />
    <glyph glyph-name="uniE6BB" unicode="&#xe6bb;" 
d="M982 408l-409 320q-26 21 -62 21t-62 -21l-406 -321q-10 -8 -11.5 -21t6.5 -23.5t21 -12t24 6.5l13 11v-388q0 -40 34 -68t74 -28h640q38 0 61 26.5t23 69.5v389l14 -12q2 -1 3.5 -2t3 -1.5t3.5 -1.5t3.5 -1t3 -0.5t3.5 -0.5q7 0 14 3.5t11 9.5q4 5 6 11t1 12t-4 12
t-8 10zM608 15v-67h-64h-64h-64v67v112q0 31 25 54t71 23q24 0 43 -6.5t30 -18t17 -24.5t6 -28v-112z" />
    <glyph glyph-name="uniE6BC" unicode="&#xe6bc;" 
d="M640 396h-256q-13 0 -22.5 9.5t-9.5 22.5t9.5 22.5t22.5 9.5h256q13 0 22.5 -9.5t9.5 -22.5t-9.5 -22.5t-22.5 -9.5zM579 268h-195q-13 0 -22.5 9.5t-9.5 22.5t9.5 22.5t22.5 9.5h195q14 0 23 -9.5t9 -22.5t-9 -22.5t-23 -9.5zM962 364q0 104 -60 192.5t-163 140
t-224.5 51.5t-225 -51.5t-163.5 -140t-60 -192.5q0 -87 45.5 -166t127.5 -135q11 -7 24 -4.5t20.5 13.5t5 24t-13.5 20q-69 47 -107 112t-38 136q0 87 51.5 160.5t140 116.5t192.5 43t192.5 -43t140 -116.5t51.5 -160.5t-51.5 -160.5t-140 -116.5t-192.5 -43q-1 0 -3 -1h-2
q-6 1 -11.5 0t-10.5 -3.5t-8.5 -7t-5.5 -9.5q-9 -26 -94 -74q17 58 3 79q-1 2 -3.5 4.5t-4.5 4t-4.5 3t-5.5 2.5t-6 1.5t-6 0.5q-8 0 -15.5 -4.5t-12 -11.5t-4.5 -16t5 -16q-1 -6 -3.5 -14t-5.5 -18t-7 -21t-8.5 -23.5t-8.5 -23.5q-9 -20 7 -35q9 -9 22 -9q4 0 7 0.5t6 2.5
q144 64 188 125q90 2 171.5 32.5t140.5 82t93.5 122t34.5 147.5z" />
    <glyph glyph-name="uniE6BD" unicode="&#xe6bd;" 
d="M160 204q-13 0 -22.5 9.5t-9.5 22.5v160q0 13 9.5 22.5t22.5 9.5t22.5 -9.5t9.5 -22.5v-160q0 -13 -9.5 -22.5t-22.5 -9.5zM864 -116h-640q-40 0 -68 28t-28 67v65q0 13 9.5 22.5t22.5 9.5t22.5 -9.5t9.5 -22.5v-65q0 -13 9.5 -22t22.5 -9h640q13 0 22.5 9.5t9.5 22.5
v640q0 13 -9.5 22.5t-22.5 9.5h-640q-13 0 -22.5 -5.5t-9.5 -11.5v-47q0 -13 -9.5 -22.5t-22.5 -9.5t-22.5 9.5t-9.5 22.5v47q0 16 7.5 31t20.5 26t31 17.5t37 6.5h640q40 0 68 -28t28 -68v-640q0 -40 -28 -68t-68 -28zM192 460h-96q-13 0 -22.5 9.5t-9.5 22.5t9.5 22.5
t22.5 9.5h96q13 0 22.5 -9.5t9.5 -22.5t-9.5 -22.5t-22.5 -9.5zM192 108h-96q-13 0 -22.5 9.5t-9.5 22.5t9.5 22.5t22.5 9.5h96q13 0 22.5 -9.5t9.5 -22.5t-9.5 -22.5t-22.5 -9.5zM319 11q-5 0 -10 2t-9 5t-7 7.5t-5 10.5q-3 13 4 24t20 14q97 23 168 31v20
q-50 43 -73 107.5t-23 162.5q0 192 192 192q46 0 81 -11.5t55.5 -30t33.5 -45t17.5 -51.5t4.5 -54q0 -171 -127 -271v-20q19 -2 43.5 -6t43 -7.5t39.5 -8t27.5 -5.5t12.5 -3q13 -3 20 -14t4 -24t-14 -20t-24 -4q-17 4 -39 8.5t-70.5 12.5t-76.5 10q-8 1 -15 5.5t-11 11.5
t-4 15v65q0 8 3.5 14.5t9.5 11.5q114 82 114 229q0 69 -30 98.5t-98 29.5q-69 0 -98.5 -29.5t-29.5 -98.5q0 -89 19.5 -142.5t63.5 -87.5q13 -9 13 -25v-65q0 -12 -9 -21.5t-21 -10.5q-48 -2 -187 -31q-4 -1 -8 -1z" />
    <glyph glyph-name="uniE6BF" unicode="&#xe6bf;" 
d="M546 172h-1q-12 0 -23.5 7.5t-21.5 18.5l-37 43q-9 10 -8.5 24t10.5 23t23 8.5t22 -10.5l37 -40l174 179l-50 55l-72 -75q-6 -6 -14.5 -8t-16.5 0t-14.5 8t-8.5 14.5t0 16.5t8 14l74 75q18 18 45 18t45 -19l50 -53q18 -19 17.5 -45.5t-18.5 -44.5l-176 -185
q-24 -24 -44 -24zM352 57q-13 0 -24.5 5t-20.5 14l-51 49q-19 18 -19 45t19 45l179 187l7 8q4 3 9 6.5t9.5 6t9.5 4t10 1.5q20 0 45 -25l42 -45q9 -9 9 -23.5t-9.5 -23.5t-22.5 -9.5t-23 8.5l-41 41l-179 -181l51 -48l75 73q6 6 14 8t16.5 0t14.5 -8q9 -10 9 -23t-9 -23
l-75 -73q-6 -6 -13.5 -10.5t-15.5 -6.5t-16 -2zM512 -148q-185 0 -316.5 131.5t-131.5 316.5t131.5 316.5t316.5 131.5t316.5 -131.5t131.5 -316.5t-131.5 -316.5t-316.5 -131.5zM512 684q-159 0 -271.5 -112.5t-112.5 -271.5t112.5 -271.5t271.5 -112.5t271.5 112.5
t112.5 271.5t-112.5 271.5t-271.5 112.5z" />
    <glyph glyph-name="uniE6C0" unicode="&#xe6c0;" 
d="M512 44q-13 0 -22.5 9.5t-9.5 22.5v96q0 13 9.5 22.5t22.5 9.5t22.5 -9.5t9.5 -22.5v-96q0 -13 -9.5 -22.5t-22.5 -9.5zM832 -148h-640q-40 0 -68 28t-28 68v352q0 40 28 68t68 28h640q40 0 68 -28t28 -68v-352q0 -40 -28 -68t-68 -28zM192 332q-13 0 -22.5 -9.5
t-9.5 -22.5v-352q0 -13 9.5 -22.5t22.5 -9.5h640q13 0 22.5 9.5t9.5 22.5v352q0 13 -9.5 22.5t-22.5 9.5h-640zM736 332q-13 0 -22.5 9.5t-9.5 22.5v130q0 52 -29.5 96.5t-74 69t-90.5 24.5q-74 0 -132 -52.5t-58 -137.5v-130q0 -13 -9.5 -22.5t-22.5 -9.5t-22.5 9.5
t-9.5 22.5v130q0 76 38 135.5t95 89t121 29.5q23 0 46.5 -5t45.5 -14t43.5 -22t39.5 -29.5t33.5 -37t26.5 -43.5t17 -49.5t6 -53.5v-130q0 -13 -9.5 -22.5t-22.5 -9.5z" />
    <glyph glyph-name="uniE6C2" unicode="&#xe6c2;" 
d="M512 44q-13 0 -22.5 9.5t-9.5 22.5v96q0 13 9.5 22.5t22.5 9.5t22.5 -9.5t9.5 -22.5v-96q0 -13 -9.5 -22.5t-22.5 -9.5zM832 -148h-640q-40 0 -68 28t-28 68v384q0 40 28 68t68 28h640q40 0 68 -28t28 -68v-384q0 -40 -28 -68t-68 -28zM192 364q-13 0 -22.5 -9.5
t-9.5 -22.5v-384q0 -13 9.5 -22.5t22.5 -9.5h640q13 0 22.5 9.5t9.5 22.5v384q0 13 -9.5 22.5t-22.5 9.5h-640zM288 396q-13 0 -22.5 9.5t-9.5 22.5v65q0 58 23 107t61 81t85.5 49.5t96.5 17.5q76 0 143 -41t101 -108q6 -11 2 -24t-16 -19t-24.5 -1.5t-18.5 15.5
q-26 52 -77.5 83t-109.5 31q-79 0 -140.5 -53t-61.5 -138v-65q0 -13 -9.5 -22.5t-22.5 -9.5z" />
    <glyph glyph-name="uniE6C3" unicode="&#xe6c3;" 
d="M512 -148q-91 0 -174 35.5t-143 95.5t-95.5 143t-35.5 174q0 185 131.5 316.5t316.5 131.5q91 0 174 -35.5t143 -95.5t95.5 -143t35.5 -174t-35.5 -174t-95.5 -143t-143 -95.5t-174 -35.5zM512 684q-159 0 -271.5 -112.5t-112.5 -271.5q0 -104 51.5 -192.5t140 -140
t192.5 -51.5t192.5 51.5t140 140t51.5 192.5q0 78 -30.5 149t-82 122.5t-122.5 82t-149 30.5zM416 74q-8 1 -14 3q-18 9 -18 29v322h-64q-13 0 -22.5 9.5t-9.5 22.5t9.5 22.5t22.5 9.5h96q13 0 22.5 -9.5t9.5 -22.5v-286l232 190h-8q-13 0 -22.5 9.5t-9.5 22.5t9.5 22.5
t22.5 9.5h97q23 0 30 -21q2 -5 2 -10t-1 -9.5t-4 -9t-7 -7.5l-353 -289q-9 -8 -20 -8z" />
    <glyph glyph-name="uniE6C4" unicode="&#xe6c4;" 
d="M729 315q-1 0 -4.5 1t-4.5 1.5t-4 1.5t-4 2t-3 2t-2.5 2.5t-1.5 3.5t-0.5 4t1.5 5q7 18 10 35.5t0.5 33.5t-9.5 26q-39 55 -190 -7v-1q-23 -9 -22 5l1 5q11 33 8.5 60t-18.5 43q-36 36 -121 3t-169 -115q-63 -63 -97.5 -126.5t-34.5 -119.5q0 -69 55 -123.5t139 -81.5
t177 -27q87 0 163 23t126 60t78.5 80.5t28.5 84.5q0 46 -29.5 76t-72.5 43zM436 -1q-72 -7 -135.5 10.5t-103 53.5t-44.5 83q-7 71 66 129t182.5 68.5t192.5 -32t90 -114t-65.5 -129.5t-182.5 -69zM898 577q-45 46 -106.5 64t-124.5 6q-14 -3 -22 -14.5t-5 -24.5t15.5 -20.5
t26.5 -4.5q44 8 88 -4.5t75.5 -45.5t41 -76t-4.5 -82q-5 -13 1.5 -25t20.5 -16.5t27 2t17 19.5q13 38 12 76.5t-17 76.5t-45 69zM808 495q-21 23 -51 32t-61 3q-12 -3 -18.5 -13t-4 -21.5t13 -18t22.5 -4.5q15 3 29.5 -1.5t24.5 -15.5q5 -4 8 -9.5t4.5 -11t2 -11t0 -11.5
t-2.5 -11q-3 -12 2.5 -22.5t17.5 -14.5q6 -2 11.5 -1t11 3.5t9 6.5t5.5 10q10 28 3.5 58t-27.5 53zM485 308q-54 14 -107.5 -9t-76.5 -70q-24 -47 -3.5 -93t74.5 -63q39 -11 77 -5t70.5 29t47.5 57q22 50 -2 95t-80 59zM430 149.5q-11 -16.5 -31.5 -23t-37.5 1.5
q-12 5 -18 14.5t-5.5 21t7.5 22.5q11 16 31 22.5t37 -1.5q18 -7 23 -24t-6 -33.5zM478 209q-4 -7 -11.5 -9.5t-14.5 0t-8.5 9t1.5 12.5q3 4 7.5 7t9 3.5t9.5 -1.5q3 -1 5.5 -3t3.5 -5t0.5 -6.5t-2.5 -6.5z" />
    <glyph glyph-name="uniE6C5" unicode="&#xe6c5;" 
d="M719 172q-68 0 -133 35q-72 29 -126 29q-31 0 -68 -10t-60 -20q-7 -3 -15 -2t-15 5q-14 10 -14 27v416q0 6 2.5 12t7 10.5t10.5 7.5q4 1 11 3.5t25 8.5t35.5 10.5t41 8t42.5 3.5q71 0 150 -35q2 -1 3 -2q48 -27 101 -27q15 0 30.5 3t26.5 6.5t21.5 8t14.5 6.5t5 3
q16 10 33 1q7 -4 11.5 -11.5t4.5 -16.5v-416q0 -5 -1.5 -10t-5 -9.5t-8.5 -7.5q-6 -4 -18.5 -10.5t-46 -16.5t-65.5 -10zM460 300q69 0 152 -34l4 -2q5 -3 15.5 -8t37 -12.5t50.5 -7.5q40 0 81 19v348q-43 -15 -83 -15q-69 0 -131 35q-68 29 -123 29q-26 0 -55.5 -7
t-55.5 -15v-349q62 19 108 19zM544 -116h-352v800q0 13 9.5 22.5t22.5 9.5t22.5 -9.5t9.5 -22.5v-736h288q13 0 22.5 -9.5t9.5 -22.5t-9.5 -22.5t-22.5 -9.5zM224 -116h-63q-5 0 -10 1.5t-9 4.5t-7 7t-4.5 9t-1.5 10q0 9 4.5 16t11.5 11.5t16 4.5h63q13 0 22.5 -9.5
t9.5 -22.5t-9.5 -22.5t-22.5 -9.5z" />
    <glyph glyph-name="uniE6C7" unicode="&#xe6c7;" 
d="M800 460h-32q-53 0 -90.5 -37.5t-37.5 -90.5v-64q0 -53 37.5 -90.5t90.5 -37.5h32q11 0 22.5 2t21.5 6t20 10v-50q0 -26 -14 -45t-34 -19h-80v-64h80q46 0 79 37.5t33 90.5v160v64q0 53 -37.5 90.5t-90.5 37.5zM800 204h-32q-26 0 -45 19t-19 45v64q0 26 19 45t45 19h32
q26 0 45 -19t19 -45v-64q0 -26 -19 -45t-45 -19zM480 492h64v-352h-64v352zM480 588h64v-64h-64v64zM256 460h-96v128h-64v-258v-64v-126h39h25h96q53 0 90.5 37t37.5 89v64q0 54 -37.5 92t-90.5 38zM320 266q0 -26 -18.5 -44t-45.5 -18h-96v64v62v66h96q26 0 45 -19.5
t19 -46.5v-64z" />
    <glyph glyph-name="uniE6C9" unicode="&#xe6c9;" 
d="M641 -54q-26 0 -45 18.5t-19 45.5q0 13 5 25t14 20.5t20.5 13.5t24.5 5h65v63q0 13 -9.5 22.5t-22.5 9.5q-27 0 -66 2v31q20 16 35.5 35.5t25.5 35.5t17 40t10.5 38t5.5 42t2 38.5t1 40.5v4q0 3 0.5 4.5t0.5 3.5v5v17l-1 8q-10 212 -189 229q-7 0 -13.5 0.5t-12.5 1.5h-8
h-6q-13 -1 -25 -2q-181 -17 -191 -230v-7q0 -3 -0.5 -5.5t-0.5 -5.5v-6v-11v-9v-8q6 -157 93 -257v-38q-68 -10 -123 -28.5t-93.5 -51t-38.5 -73.5q0 -33 18 -59.5t45 -43.5t64.5 -29.5t71.5 -19t72.5 -10t60 -4.5t40.5 -1h13h14q98 0 185 18q12 3 19 11.5t7 20.5v50h-66z
M898 44h-98v94q0 13 -9.5 22.5t-22.5 9.5t-22.5 -9.5t-9.5 -22.5v-94h-95q-13 0 -22.5 -9.5t-9.5 -22.5t9.5 -22.5t22.5 -9.5h95v-98q0 -14 9.5 -23t22.5 -9t22.5 9t9.5 23v98h98q13 0 22.5 9.5t9.5 22.5t-9.5 22.5t-22.5 9.5z" />
    <glyph glyph-name="uniE6CA" unicode="&#xe6ca;" 
d="M898 44h-98v94q0 13 -9.5 22.5t-22.5 9.5t-22.5 -9.5t-9.5 -22.5v-94h-95q-13 0 -22.5 -9.5t-9.5 -22.5t9.5 -22.5t22.5 -9.5h95v-98q0 -14 9.5 -23t22.5 -9t22.5 9t9.5 23v98h98q13 0 22.5 9.5t9.5 22.5t-9.5 22.5t-22.5 9.5zM468 -151q-28 0 -58 1.5t-76 6.5t-84.5 17
t-74.5 29t-57 46t-21 66q0 25 14.5 47t38.5 38t57.5 29.5t69.5 22.5t76 15v37q-30 29 -50 64t-29 74.5t-12 71.5t-4 75q0 119 60.5 188t164.5 69q222 0 222 -256q0 -54 -16.5 -102.5t-47.5 -106.5l-32 -66v-77q0 -14 -9 -23t-22.5 -9t-23 9t-9.5 23v85q1 7 4 14l35 73
q28 53 42.5 94.5t14.5 85.5q0 67 -16.5 109t-51 62.5t-90.5 20.5q-42 0 -73 -15t-47 -36t-26 -49.5t-12.5 -49.5t-2.5 -42q1 -90 19 -148t65 -99q3 -3 5 -5.5t3.5 -5.5t2 -6.5t0.5 -6.5v-80q0 -13 -8 -22t-20 -10q-49 -6 -92.5 -16.5t-72.5 -23t-46 -26.5t-17 -26
q0 -27 30 -47.5t78 -32t98.5 -17t100.5 -5.5q60 0 168 14h1q13 2 23.5 -6t12.5 -21t-6 -23.5t-21 -12.5q-5 -1 -8.5 -1.5t-17 -2t-25.5 -3t-30 -3t-33.5 -3t-32.5 -2t-31 -0.5z" />
    <glyph glyph-name="uniE6CB" unicode="&#xe6cb;" 
d="M387 -148h-1h-2q-121 11 -201.5 62t-80.5 116q0 40 38.5 74t95 54.5t124.5 30.5v13q-18 13 -32.5 29.5t-25.5 35t-19.5 38t-14 41t-9.5 42t-5.5 43.5t-2.5 42.5t-1 41.5q0 109 61 171t169 62q70 0 119.5 -27t75 -79t25.5 -127q0 -35 -7.5 -74.5t-21.5 -79.5t-33 -76
q-6 -12 -19 -15.5t-24.5 2.5t-15.5 18.5t2 24.5q25 47 40 101.5t15 98.5q0 169 -156 169q-166 0 -166 -169q0 -45 3.5 -79.5t12.5 -73t29 -68.5t50 -49q7 -4 11 -11t4 -16v-57q0 -12 -8.5 -21.5t-20.5 -10.5q-40 -4 -77 -13t-64 -19.5t-47.5 -22.5t-30.5 -23.5t-10 -20.5
q0 -7 4 -15.5t11.5 -17t18.5 -17.5t25.5 -17.5t32.5 -16t38 -13.5t44 -10.5t50 -6.5q13 -1 21.5 -11.5t7.5 -23.5q-1 -8 -5.5 -14.5t-11.5 -10.5t-15 -4zM852 -147q-9 0 -15 4l-113 62l-114 -62q-8 -4 -17 -3.5t-16 5.5q-17 12 -14 31l23 135l-93 95q-3 3 -5 7t-3 8t-1 8.5
t2 9.5q6 18 25 21l127 19l57 121q3 6 7.5 10t10 6.5t11.5 2.5q10 0 17.5 -5t11.5 -14l57 -121l127 -20q19 -3 25 -21.5t-7 -32.5l-93 -95l21 -128l2 -11q0 -13 -9.5 -22.5t-22.5 -9.5h-1zM724 -12q8 -1 15 -4l71 -39l-14 85q-2 16 9 28l60 61l-82 13q-5 1 -9.5 3.5t-8 6
t-6.5 8.5l-35 76l-35 -76q-4 -7 -10.5 -11.5t-14.5 -6.5l-82 -12l61 -62q11 -12 8 -28l-14 -85l71 39q3 1 5.5 2t5 1.5t5.5 0.5z" />
    <glyph glyph-name="uniE6CC" unicode="&#xe6cc;" 
d="M401 -148q-336 0 -336 162q0 37 34 67.5t84.5 49t111.5 28.5v6q-31 24 -51.5 57t-30 73t-13 74.5t-3.5 76.5q0 99 55 155t153 56h7q64 0 111 -25t72 -72.5t25 -113.5q0 -42 -3.5 -76.5t-13 -74.5t-30 -73t-51.5 -57v-6q61 -10 111.5 -28.5t84.5 -49t34 -67.5
q0 -20 -6 -38t-20 -37t-40.5 -34t-64 -27.5t-94 -19t-126.5 -6.5zM405 593q-72 0 -108 -37t-36 -110q0 -21 0.5 -39.5t3 -39.5t6 -38.5t10 -35.5t15 -33t20.5 -28.5t28 -22.5q15 -10 15 -27v-52q0 -12 -8.5 -21t-20.5 -10q-43 -5 -82 -15.5t-64.5 -22.5t-40 -24.5
t-14.5 -22.5q0 -98 272 -98q91 0 155.5 11.5t98 33.5t33.5 53q0 21 -58.5 48.5t-142.5 36.5q-13 1 -21 10t-8 21v52q0 4 1 8t3 7.5t4.5 6.5t6.5 5q26 16 43.5 42.5t25.5 60t11 64.5t3 70q0 147 -144 147h-7zM899 48q-13 0 -22.5 9.5t-9.5 22.5q0 8 -10 18.5t-29 22.5
t-42.5 23t-54 19.5t-61.5 11.5q-12 2 -20 11t-8 21v67q0 17 14 27q29 18 49 48t28.5 63.5t11.5 58t3 47.5q0 125 -121 133q-8 1 -16 1q-13 0 -22.5 9.5t-9.5 22.5q0 7 2.5 12.5t6.5 10t10 7t13 2.5q93 0 147 -53t54 -145q0 -27 -3.5 -55.5t-13.5 -67.5t-33 -76t-56 -62v-22
q53 -10 103.5 -31.5t86 -55t35.5 -68.5q0 -13 -9.5 -22.5t-22.5 -9.5z" />
    <glyph glyph-name="uniE6CD" unicode="&#xe6cd;" 
d="M752 -148h-475q-39 0 -70.5 26.5t-38.5 64.5l-68 416q-7 41 18.5 71.5t67.5 30.5h657q20 0 37.5 -8t29.5 -23q26 -30 19 -71l-69 -415q-4 -26 -20 -47t-39.5 -33t-48.5 -12zM186 397q-12 0 -18.5 -7.5t-4.5 -20.5l68 -415q2 -10 9 -18.5t17 -14t20 -5.5h475q10 0 20 5.5
t17 14t8 18.5l69 415q2 13 -4.5 20.5t-18.5 7.5h-657zM320 205q-26 0 -45 18.5t-19 45.5q0 17 9 32t23.5 23.5t31.5 8.5q27 0 45.5 -19t18.5 -45q0 -13 -5 -25t-13.5 -20.5t-20.5 -13.5t-25 -5zM320 269v-32v32zM706.5 205q-17.5 0 -32.5 8.5t-23.5 23t-8.5 32.5q0 26 19 45
t45 19q8 0 15 -2t13.5 -5t12 -7.5t10 -10t7.5 -11.5t4.5 -13.5t1.5 -14.5q0 -18 -8.5 -32.5t-23 -23t-32 -8.5zM706 269v-32v32zM738 492q-13 0 -22.5 9.5t-9.5 22.5q0 44 -29.5 81.5t-73.5 58t-90 20.5q-75 0 -133 -44t-58 -116q0 -13 -9 -22.5t-22.5 -9.5t-23 9.5
t-9.5 22.5q0 67 38 119.5t95.5 78.5t121.5 26q61 0 120 -28t98 -80.5t39 -115.5q0 -9 -4 -16t-11.5 -11.5t-16.5 -4.5z" />
    <glyph glyph-name="uniE6CE" unicode="&#xe6ce;" 
d="M743 90q1 1 5.5 4t6.5 5q11 10 10 26l-3 51l50 8q16 2 24 16q21 41 32.5 86t11.5 91v13l-1 4q-1 16 -14 25l-42 29l26 46q8 13 2 28q-40 94 -123 155q-6 4 -13.5 5.5t-14.5 -0.5l-49 -15l-19 48q-6 15 -21 19q-99 28 -197 0q-16 -4 -22 -19l-19 -48l-49 15q-15 4 -28 -5
q-83 -61 -123 -155q-1 -2 -1.5 -4.5t-0.5 -5.5v-4q0 -3 0.5 -5.5t1.5 -4.5l2 -4l26 -46l-42 -29q-7 -4 -10.5 -10.5t-3.5 -14.5v-5q-1 -8 -1 -12q0 -46 11.5 -91t33.5 -86q7 -14 23 -16l50 -8l-3 -51q-2 -15 10 -26q2 -2 6 -4.5t6 -4.5l-86 -140q-6 -10 -5.5 -20.5
t6.5 -19.5q14 -18 38 -11l79 22l50 -57q3 -4 7.5 -7t9.5 -4.5t10 -1.5q3 0 7 1q20 5 26 25l41 137q3 1 6 2.5t5 4.5l37 34l37 -34q9 -9 22 -9q3 0 5 1q30 5 58.5 15.5t55.5 25.5l46 -73l-20 5q-25 8 -43 -12l-27 -32l-5 14q-5 12 -17 18t-24.5 1.5t-18 -16.5t-0.5 -25
l21 -59q3 -9 10 -15t17 -8q3 -1 6 -1q8 0 15 3.5t12 9.5l50 57l80 -22q8 -2 15 -1.5t13 4t10 9.5q14 18 1 39zM377 -55l-25 29q-17 20 -43 12l-20 -5l45 73q17 -9 33.5 -16.5t33.5 -13.5zM534 122q-9 9 -22 9t-22 -9l-46 -43q-67 15 -120 58l4 64q1 5 -0.5 9.5t-3.5 8.5
t-5.5 7.5t-8 5.5t-9.5 3l-63 10q-30 62 -30 130l53 37q7 5 10.5 12t3.5 15t-4 15l-33 57q30 61 83 105l62 -19q6 -2 12 -1.5t11 3t9.5 7t6.5 10.5l24 60q66 15 132 0l24 -60q4 -12 15.5 -17.5t23.5 -1.5l62 19q26 -22 47 -48.5t36 -56.5l-33 -57q-4 -7 -4 -15t3.5 -15
t10.5 -12l53 -37q0 -68 -30 -130l-63 -10q-13 -2 -20.5 -11.5t-6.5 -22.5l4 -64q-53 -43 -120 -58zM512 158q-92 0 -157 65t-65 157q0 45 17.5 86t47.5 71t71 47.5t86 17.5q92 0 157 -65t65 -157q0 -45 -17.5 -86t-47.5 -71t-71 -47.5t-86 -17.5zM512 538
q-65 0 -111.5 -46.5t-46.5 -111.5t46.5 -111.5t111.5 -46.5t111.5 46.5t46.5 111.5t-46.5 111.5t-111.5 46.5z" />
    <glyph glyph-name="uniE6D0" unicode="&#xe6d0;" 
d="M513 -53q-146 0 -276.5 89.5t-197.5 234.5l-1 4q-2 3 -2 6q-1 2 -1 4t-1 3l-1 8v6q1 8 2 11l2 8v2q1 1 1.5 2.5t0.5 2.5q67 145 197.5 234t277 89t277 -89t196.5 -235q1 -1 2 -4q0 -1 1 -1v-1l2 -11v-2q1 -1 1 -4v-5q0 -4 -0.5 -7t-0.5 -6v-1q0 -1 -0.5 -3.5t-1.5 -4.5
l-1 -1q-1 -4 -3 -7q-65 -144 -196 -233t-277 -89zM98 295q60 -128 174 -206t241 -78t241.5 78t173.5 206v1l1 1v1v4l-1 1v0q-59 128 -173 206t-241.5 78t-242 -78t-173.5 -206v-1v-2v-1v-1v-2v-1zM514 139l-13 3q-11 5 -26 12.5t-44.5 26.5t-51.5 39.5t-39.5 50t-17.5 59.5
q0 67 40 101q17 15 39.5 21.5t34.5 5t18 -0.5q13 -2 21 -12.5t6 -24t-13 -21t-24 -5.5q-28 0 -41 -11q-17 -15 -17 -53q0 -31 40.5 -65.5t87.5 -57.5q47 23 87.5 57.5t40.5 65.5q0 20 -7 31.5t-26 26.5l-77 -54q-11 -7 -24 -4.5t-20.5 13.5t-5 24t13.5 20l96 67q19 13 37 -1
l4 -3q15 -11 22.5 -17t19 -18t17 -22.5t10 -27t4.5 -35.5q0 -30 -17.5 -59.5t-39.5 -50t-51.5 -39.5t-44 -26.5t-26.5 -12.5q-6 -3 -13 -3z" />
    <glyph glyph-name="uniE6D2" unicode="&#xe6d2;" 
d="M960 -17l-42 417q-2 10 -5 20.5t-8 20t-11.5 18t-14.5 16.5t-17 14t-18.5 10.5t-19.5 7.5l-5 1q-3 0 -5.5 2t-4.5 5t-4 7t-3 9t-1.5 11.5t-0.5 13.5v64q0 20 -7.5 37.5t-20 30.5t-30 20.5t-36.5 7.5h-33q-19 0 -37 -6.5t-31 -17t-21 -25.5t-8 -31v-48q0 -3 0.5 -6t2 -6
t3 -5.5t4 -5t4.5 -3.5l6 -4q2 -1 5.5 -1.5t6.5 -0.5q7 0 12.5 2.5t10 7t7 10.5t2.5 12v48q0 5 10 10.5t23 5.5h33q13 0 21.5 -9.5t8.5 -22.5v-64q0 -29 7 -50.5t18 -33.5t21.5 -18t21.5 -8l4 -1q16 -4 30 -20t16 -32l32 -317h-203l-10 100q-4 38 -33.5 65t-68.5 27h-125
q-28 0 -60 -28t-36 -64l-10 -100h-203l20 320q1 12 8.5 25.5t17.5 25t21 16.5l13 7q31 16 51 49t20 69v32q0 13 10 22.5t23 9.5h32q9 0 16 -4.5t11 -11.5t4 -16v-61q0 -27 11 -49.5t30 -36t40 -13.5h112q7 0 13 2.5t10 7t6.5 10t2.5 12.5t-2.5 12.5t-6.5 10t-10 7t-13 2.5
h-112q-2 0 -6 4t-7.5 12.5t-3.5 18.5v61q0 40 -27.5 68t-67.5 28h-32q-39 0 -68 -28t-29 -68v-32q0 -12 -4.5 -24t-13 -22t-18.5 -15l-13 -6q-31 -16 -54.5 -49.5t-27.5 -69.5l-26 -419q-5 -40 21 -69.5t67 -29.5h138q38 0 68 27t34 66l19 192q0 4 2.5 8t5.5 8t6.5 7.5t7 6
t6.5 4t4 1.5h125q14 0 25.5 -10.5t13.5 -24.5l19 -192q4 -39 34 -66t68 -27h141q41 0 67 29.5t21 69.5zM293 -52h-138q-12 0 -19 8t-5 22l2 34h201l-3 -29q-1 -14 -12.5 -24.5t-25.5 -10.5zM891 -44q-7 -8 -19 -8h-141q-14 0 -25.5 10.5t-12.5 24.5l-3 29h203l4 -36
q1 -12 -6 -20z" />
    <glyph glyph-name="uniE6D3" unicode="&#xe6d3;" 
d="M929 524h-75q6 0 13 6t12.5 16t10 20t7.5 20q14 46 -17 87q-2 2 -4 5q-21 17 -44 26t-45.5 10t-46.5 -3.5t-44 -12t-40.5 -18.5t-35 -20t-27.5 -18q-7 -5 -10.5 -13t-3 -16.5t5.5 -15.5q7 -11 20 -13.5t24 5.5l1 1l2 1q13 9 27 18t38 20t45.5 16.5t46 3t42.5 -17.5
q9 -13 5 -27q-6 -16 -24 -31.5t-32 -20.5q-63 -24 -105 -27h-2l-3 -1h-89q-1 0 -2 2.5t-2 3.5q-109 101 -127 113q-88 61 -164.5 70t-128.5 -35l-5 -5q-30 -41 -16 -87q3 -10 7.5 -20t10 -20t12 -16t13.5 -6h-82q-13 0 -23 -10t-10 -23v-160q0 -8 0.5 -12.5t3.5 -9.5
t9.5 -7.5t18.5 -2.5v-313q0 -42 27.5 -72t65.5 -30h646q25 0 46.5 14t34 37.5t12.5 50.5v313q12 0 18.5 2.5t9.5 7.5t3.5 9.5t0.5 12.5v160q0 14 -9 23.5t-22 9.5zM357 525q-22 2 -43 7t-63 21q-13 4 -31 19.5t-23 32.5q-2 7 -1 13.5t5 12.5q16 12 35.5 17t39.5 2t39.5 -9
t39.5 -16t34 -18.5t27 -17.5q3 -2 12 -10t30 -27t31 -28h-126q-1 0 -3 0.5t-3 0.5zM896 460v-96h-764l-4 -1v97h768zM835 -52h-646q-12 0 -20.5 12t-8.5 26v314h704v-314q0 -14 -9 -26t-20 -12z" />
    <glyph glyph-name="uniE6D4" unicode="&#xe6d4;" 
d="M832 716h-640q-40 0 -68 -28t-28 -68v-640q0 -40 28 -68t68 -28h640q40 0 68 28t28 68v640q0 40 -28 68t-68 28zM727 374l-256 -259v-1q-2 -2 -6 -4q-1 0 -1.5 -0.5t-1.5 -1t-2 -1.5q-6 -2 -12 -2t-12 2l-2 2q-1 0 -1 1q-6 3 -7 4v1h-1l-126 129q-6 6 -8 14.5t0.5 16.5
t8.5 15q9 9 22.5 8.5t22.5 -9.5l103 -106l234 236q9 9 22.5 9t22.5 -9.5t9.5 -22.5t-9.5 -22z" />
    <glyph glyph-name="uniE6D5" unicode="&#xe6d5;" 
d="M832 -116h-640q-40 0 -68 28t-28 68v640q0 40 28 68t68 28h640q40 0 68 -28t28 -68v-640q0 -40 -28 -68t-68 -28zM192 652q-13 0 -22.5 -9.5t-9.5 -22.5v-640q0 -13 9.5 -22.5t22.5 -9.5h640q13 0 22.5 9.5t9.5 22.5v640q0 13 -9.5 22.5t-22.5 9.5h-640z" />
    <glyph glyph-name="uniE6D6" unicode="&#xe6d6;" 
d="M727 418.5q-9 9.5 -22.5 9.5t-22.5 -9l-234 -236l-103 106q-9 9 -22.5 9.5t-23 -9t-9.5 -22.5t9 -23l126 -129h1v-1q1 -1 5 -4h2l1 -1l2 -2q6 -2 12 -2q7 0 12 2q1 1 2 1.5t1.5 1t1.5 0.5q4 2 6 4v1l256 259q10 9 9.5 22t-9.5 22.5zM832 -116h-640q-40 0 -68 28t-28 68
v640q0 40 28 68t68 28h640q40 0 68 -28t28 -68v-640q0 -40 -28 -68t-68 -28zM192 652q-13 0 -22.5 -9.5t-9.5 -22.5v-640q0 -13 9.5 -22.5t22.5 -9.5h640q13 0 22.5 9.5t9.5 22.5v640q0 13 -9.5 22.5t-22.5 9.5h-640z" />
    <glyph glyph-name="uniE6D7" unicode="&#xe6d7;" 
d="M512 -148q-185 0 -316.5 131.5t-131.5 316.5t131.5 316.5t316.5 131.5t316.5 -131.5t131.5 -316.5t-131.5 -316.5t-316.5 -131.5zM512 684q-159 0 -271.5 -112.5t-112.5 -271.5t112.5 -271.5t271.5 -112.5t271.5 112.5t112.5 271.5t-112.5 271.5t-271.5 112.5z" />
    <glyph glyph-name="uniE6D8" unicode="&#xe6d8;" 
d="M829 615q-64 64 -145.5 97.5t-171.5 33.5t-171.5 -33.5t-145.5 -97.5q-42 -42 -71.5 -92.5t-44.5 -107t-15 -115.5q0 -89 34 -170.5t97 -144.5q42 -42 93 -71.5t107.5 -44.5t116.5 -15q90 0 171.5 33.5t145 97t97.5 145t34 170.5q0 59 -15 115.5t-44.5 107t-71.5 92.5z
M736 268h-192v-192q0 -13 -9.5 -22.5t-22.5 -9.5t-22.5 9.5t-9.5 22.5v192h-192q-13 0 -22.5 9.5t-9.5 22.5t9.5 22.5t22.5 9.5h192v192q0 13 9.5 22.5t22.5 9.5t22.5 -9.5t9.5 -22.5v-192h192q13 0 22.5 -9.5t9.5 -22.5t-9.5 -22.5t-22.5 -9.5z" />
    <glyph glyph-name="uniE6D9" unicode="&#xe6d9;" 
d="M512 -146q-90 0 -171.5 33.5t-145 97t-97.5 145t-34 170.5q0 59 15 115.5t44.5 107t71.5 92.5q64 64 145.5 97.5t171.5 33.5t171.5 -33.5t145 -97t97.5 -145t34 -170.5t-34 -170.5t-97.5 -145t-145 -97t-171.5 -33.5zM512 682q-77 0 -147 -29t-124.5 -83t-83.5 -123.5
t-29 -146.5t29 -146.5t83.5 -123.5t124.5 -83t147 -29q51 0 99.5 13t92 38t80.5 61q54 54 83 124t29 146.5t-29 146t-83.5 123.5t-124.5 83t-147 29zM736 332h-192v192q0 13 -9.5 22.5t-22.5 9.5t-22.5 -9.5t-9.5 -22.5v-192h-192q-13 0 -22.5 -9.5t-9.5 -22.5t9.5 -22.5
t22.5 -9.5h192v-192q0 -13 9.5 -22.5t22.5 -9.5t22.5 9.5t9.5 22.5v192h192q13 0 22.5 9.5t9.5 22.5t-9.5 22.5t-22.5 9.5z" />
    <glyph glyph-name="uniE6DA" unicode="&#xe6da;" 
d="M800 332h-256v256q0 13 -9.5 22.5t-22.5 9.5t-22.5 -9.5t-9.5 -22.5v-256h-256q-13 0 -22.5 -9.5t-9.5 -22.5t9.5 -22.5t22.5 -9.5h256v-256q0 -13 9.5 -22.5t22.5 -9.5t22.5 9.5t9.5 22.5v256h256q13 0 22.5 9.5t9.5 22.5t-9.5 22.5t-22.5 9.5z" />
    <glyph glyph-name="uniE6DB" unicode="&#xe6db;" 
d="M726 211q-4 0 -7 1q-13 3 -20 14t-5 24q6 28 6 56q0 93 -54 168q-8 11 -6 24t13 21t24 5.5t21 -13.5q66 -92 66 -205q0 -35 -7 -69q-2 -11 -11 -18.5t-20 -7.5zM886 69q-7 0 -14 3q-7 4 -12 11t-5.5 15t2.5 17q41 84 41 179q0 156 -103 273q-9 10 -8 23.5t11 22t23 8
t22 -10.5q58 -66 88.5 -147.5t30.5 -168.5q0 -109 -47 -207q-8 -18 -29 -18zM864 -84q-13 0 -23 9l-703 704q-9 9 -9 22t9.5 22.5t22.5 9.5t22 -9l704 -703q9 -10 9 -23t-9.5 -22.5t-22.5 -9.5zM525 715q-5 0 -9.5 -0.5t-9.5 -2t-10 -4t-10 -5.5t-10 -6.5t-9.5 -7.5t-9.5 -9
l-93 -96l212 -212v287q0 25 -14.5 40.5t-36.5 15.5zM96 398v-196q0 -40 28 -67t68 -27h82l183 -190q34 -34 67 -34q23 0 37.5 16t14.5 41v159l-391 391q-38 -2 -63.5 -28.5t-25.5 -64.5z" />
    <glyph glyph-name="uniE6DC" unicode="&#xe6dc;" 
d="M991 307l-1 2v2v1l-1 1v1v1q-66 149 -197.5 242.5t-280 93.5t-279.5 -93.5t-197 -241.5q0 -1 -1 -2v-1v-1q-1 -1 -1 -3v-2l-1 -8q0 -5 1 -8v-1q0 -2 1 -3v-2l1 -2q66 -149 197 -242.5t279.5 -93.5t280 93.5t197.5 241.5v2v1l1 1v1l1 2v2q1 5 1 7.5t-1 8.5zM648 296
l-113 -111q-14 -13 -23 -13t-23 13l-113 111q-24 25 -24 55q0 21 10.5 38.5t29 28t40.5 10.5q16 0 30 -5.5t25 -15.5l25 -24v1l2 2l4 2q1 2 3.5 4t4 4t3.5 3.5t3 2.5l3 3l2 2q23 21 55 21q22 0 40.5 -10.5t29 -28t10.5 -38.5q0 -12 -3.5 -22.5t-7.5 -16.5t-13 -16z" />
    <glyph glyph-name="uniE6DD" unicode="&#xe6dd;" 
d="M963 -17l-49 417q-4 36 -31 67t-62 40l-5 1q-16 4 -16 48v64q0 20 -7.5 37.5t-20 30.5t-30 20.5t-36.5 7.5h-36q-26 0 -47.5 -10.5t-34 -29t-12.5 -40.5v-48q0 -1 -0.5 -2.5t0.5 -2.5q2 -7 0 -24.5t-9 -25.5q-2 -2 -3 -3.5t-6.5 -3.5t-12.5 -2h-80q-4 0 -10.5 11t-6.5 24
v64q0 20 -7.5 37t-20 29.5t-30 19.5t-37.5 7h-32q-26 0 -48 -12t-35.5 -33.5t-13.5 -47.5v-32q0 -5 -1.5 -11.5t-4 -12.5t-6 -12.5t-8 -11.5t-9.5 -9t-10 -7l-13 -6q-31 -16 -54.5 -49.5t-27.5 -69.5l-27 -419q-4 -40 22 -69.5t67 -29.5h160q38 0 68 27t34 66l19 192
q1 12 10 23.5t13 11.5h96q14 0 25.5 -10.5t12.5 -24.5l20 -192q1 -16 7 -30t16 -25t22.5 -20t27 -13.5t29.5 -4.5h163q41 0 67 29.5t21 69.5zM352 12h-224q-13 0 -22.5 9.5t-9.5 22.5t9.5 22.5t22.5 9.5h224q13 0 22.5 -9.5t9.5 -22.5t-9.5 -22.5t-22.5 -9.5zM896 12h-224
q-13 0 -22.5 9.5t-9.5 22.5t9.5 22.5t22.5 9.5h224q13 0 22.5 -9.5t9.5 -22.5t-9.5 -22.5t-22.5 -9.5z" />
    <glyph glyph-name="uniE6DE" unicode="&#xe6de;" 
d="M887 195l-353 350l-1 1h-1v1q-18 17 -39 4q-4 -2 -6 -5l-350 -353q-5 -5 -7.5 -11t-2.5 -12t2.5 -12t7.5 -10q3 -3 6.5 -5t7.5 -3t8 -1q14 0 23 9l328 331l332 -330q10 -9 23 -9q6 0 12 2.5t11 7.5q3 3 5.5 8t3 9.5t0 9.5t-3 9.5t-6.5 8.5z" />
    <glyph glyph-name="uniE6DF" unicode="&#xe6df;" 
d="M205 -51h-11q-53 5 -93 55t-59 132.5t-11 179.5q12 150 74.5 246t143.5 89q55 -5 106 -76q8 -11 5.5 -24t-12.5 -21q-7 -5 -15.5 -6t-16.5 2.5t-13 10.5q-18 25 -32 37t-27 13q-47 4 -93 -75.5t-56 -201.5q-5 -61 2 -116.5t22.5 -93.5t36.5 -61.5t44 -25.5
q26 -2 51.5 17.5t46 58.5t34.5 91q3 11 11.5 17.5t19.5 6.5h300q5 0 10 -1.5t9 -5t7 -7.5t5 -10q22 -80 58.5 -125.5t76.5 -40.5q22 2 42 24t34 60q35 91 22 215q-6 60 -22.5 113.5t-41.5 92.5q-22 35 -46 52.5t-46 15.5q-29 -3 -60 -49q-9 -14 -26 -14h-237
q-13 0 -22.5 9.5t-9.5 22.5t9.5 22.5t22.5 9.5h220q45 57 97 62q80 9 145.5 -87t80.5 -244q14 -139 -26 -244q-21 -56 -54.5 -88.5t-75.5 -36.5q-61 -6 -113.5 44.5t-82.5 145.5h-252q-27 -90 -75.5 -140.5t-106.5 -50.5zM320 364h-32v32q0 13 -9.5 22.5t-22.5 9.5
t-22.5 -9.5t-9.5 -22.5v-32h-32q-13 0 -22.5 -9.5t-9.5 -22.5t9.5 -22.5t22.5 -9.5h32v-32q0 -13 9.5 -22.5t22.5 -9.5t22.5 9.5t9.5 22.5v32h32q13 0 22.5 9.5t9.5 22.5t-9.5 22.5t-22.5 9.5zM800 428zM736 428q0 26 19 45t45 19t45 -19t19 -45t-19 -45t-45 -19t-45 19
t-19 45zM672 300zM608 300q0 26 19 45t45 19t45 -19t19 -45t-19 -45t-45 -19t-45 19t-19 45z" />
    <glyph glyph-name="uniE6E0" unicode="&#xe6e0;" 
d="M516 460q-3 0 -6 1l-356 64q-7 1 -13 5.5t-9.5 11t-3.5 14.5v96q0 40 28 68t68 28h576q40 0 68 -28t28 -68v-96q0 -12 -7.5 -20.5t-18.5 -10.5l-348 -64q-3 -1 -6 -1zM192 583l324 -58l316 58v69q0 13 -9.5 22.5t-22.5 9.5h-576q-13 0 -22.5 -9.5t-9.5 -22.5v-69z
M800 -148h-576q-40 0 -68 28t-28 68v480q0 13 9.5 22.5t22.5 9.5t22.5 -9.5t9.5 -22.5v-480q0 -13 9.5 -22.5t22.5 -9.5h576q13 0 22.5 9.5t9.5 22.5v480q0 13 9.5 22.5t22.5 9.5t22.5 -9.5t9.5 -22.5v-480q0 -40 -28 -68t-68 -28zM608 172q13 0 22.5 9.5t9.5 22.5
t-9.5 22.5t-22.5 9.5h-52l76 73q10 10 10 23t-9 22q-5 5 -10.5 7.5t-12 2.5t-12.5 -2t-10 -7l-77 -73l-73 73q-9 9 -22.5 9t-23 -9.5t-9.5 -22.5t10 -22l74 -74h-51q-9 0 -16.5 -4.5t-11.5 -11.5t-4 -16q0 -13 9 -22.5t23 -9.5h64v-32h-64q-14 0 -23 -9.5t-9 -22.5
q0 -9 4 -16t11.5 -11.5t16.5 -4.5h64v-64q0 -14 9.5 -23t22.5 -9t22.5 9t9.5 23v64h64q6 0 12 2.5t10.5 7t7 10t2.5 12.5q0 13 -9.5 22.5t-22.5 9.5h-64v32h64z" />
    <glyph glyph-name="uniE6E1" unicode="&#xe6e1;" 
d="M896 389l-1 5q0 8 -3.5 14.5t-10.5 10.5l-42 29l26 46q8 13 2 28q-40 94 -123 155q-13 10 -28 5l-49 -15l-19 48q-2 3 -4 6.5t-4.5 6t-6 4t-6.5 2.5q-99 28 -197 0l-6 -2q-3 -1 -5 -3l-4 -4q-2 -2 -4 -4.5t-3 -5.5l-19 -48l-49 15q-15 4 -28 -5q-83 -61 -123 -155
q-6 -15 2 -28l26 -46l-42 -29q-3 -2 -5 -4t-4 -5l-2 -4q-2 -3 -2.5 -6t-0.5 -6v-4q-1 -8 -1 -13q0 -46 11.5 -91t33.5 -86q7 -14 23 -16l50 -8l-3 -51q-1 -3 -0.5 -6t1.5 -5l2 -6q1 -2 3 -4.5t4 -4.5q78 -68 179 -86q2 -1 5 -1t6 0.5t6 1.5t5.5 3t4.5 4l37 34l37 -34
q12 -11 27 -8q101 18 179 86q12 10 10 26l-3 51l50 8q16 2 24 16q44 83 44 177v12zM528 204q-73 0 -124.5 51.5t-51.5 124.5q0 36 14 68.5t37.5 56t56 37.5t68.5 14q73 0 124.5 -51.5t51.5 -124.5q0 -24 -6.5 -47t-17.5 -42t-27.5 -35.5t-35.5 -27.5t-42 -17.5t-47 -6.5z
M778 61q-39 -31 -84 -52t-94 -30q-5 0 -11 1l28 -106q7 -20 27 -24h6q8 0 15 3t12 9l50 58l94 -23q23 -6 37 12q6 9 6 20t-6 21zM468 -21q-3 0 -6 1q-33 6 -65.5 17.5t-62 29t-55.5 39.5l-82 -118q-13 -20 1 -38.5t37 -12.5l93 23l50 -57q11 -13 27 -13l7 1q20 4 26 25
l31 103h-1z" />
    <glyph glyph-name="uniE6E2" unicode="&#xe6e2;" 
d="M307 361q-73 0 -124.5 51.5t-51.5 124.5t51.5 124.5t124.5 51.5q48 0 88.5 -23.5t64 -64t23.5 -88.5q0 -73 -51.5 -124.5t-124.5 -51.5zM307 649q-47 0 -79.5 -33t-32.5 -79t32.5 -79t79 -33t79.5 33t33 79q0 30 -15 56t-41 41t-56 15zM719.5 361q-72.5 0 -124.5 51.5
t-52 124.5q0 36 14 68.5t37.5 56t56.5 37.5t68 14q73 0 124.5 -51.5t51.5 -124.5t-51.5 -124.5t-124 -51.5zM719 649q-46 0 -79 -33t-33 -79q0 -30 15 -56t41 -41t56 -15q47 0 79.5 33t32.5 79q0 30 -15 56t-40.5 41t-56.5 15zM304 -89q-73 0 -124.5 51.5t-51.5 124
t51.5 124.5t124 52t124.5 -52t52 -124q0 -48 -24 -88.5t-64.5 -64t-87.5 -23.5zM304 199q-47 0 -79.5 -33t-32.5 -79.5t32.5 -79t79 -32.5t79.5 32.5t33 79.5q0 30 -15 56t-41 41t-56 15zM923 -95l-66 69q41 48 41 113q0 72 -51.5 124t-124 52t-124.5 -52t-52 -124
q0 -67 45.5 -117t112.5 -58h4q12 0 21 8t10 20q2 8 -1.5 16t-10.5 13t-15 7q-43 5 -72.5 37t-29.5 74q0 30 15 56t41 41t56 15q47 0 79.5 -33t32.5 -79q0 -13 -2.5 -25.5t-8 -24t-13.5 -21.5t-19 -18q-10 -8 -11.5 -21t6.5 -23q4 -6 11 -9q1 -1 1.5 -2.5t1.5 -2.5l77 -79
q9 -10 23 -10q13 0 22 9q10 9 10 22t-9 23z" />
    <glyph glyph-name="uniE6E3" unicode="&#xe6e3;" 
d="M864 428h-189q7 17 13 46.5t9 67.5t-2 76q-5 45 -30 77.5t-63 45.5q-14 5 -28.5 6.5t-27.5 -0.5t-24.5 -7.5t-19.5 -13.5q-12 -12 -22 -35t-15.5 -41t-13.5 -52q-17 -70 -28 -89q-20 -34 -57.5 -57.5t-51.5 -23.5h-90q-9 0 -16 -4.5t-11.5 -11.5t-4.5 -16v-448
q0 -13 9.5 -22.5t22.5 -9.5h87q8 0 45 -16t91.5 -32t104.5 -16h216q33 0 68.5 13t51 38.5t44 207.5t28.5 220q0 26 -15 48.5t-37 35.5t-44 13zM96 428q-13 0 -22.5 -9.5t-9.5 -22.5v-448q0 -9 4.5 -16t11.5 -11.5t16 -4.5q13 0 22.5 9.5t9.5 22.5v448q0 13 -9.5 22.5
t-22.5 9.5z" />
    <glyph glyph-name="uniE6E4" unicode="&#xe6e4;" 
d="M512 746q-73 0 -141 -22.5t-122.5 -64t-96 -96t-64 -122.5t-22.5 -141q0 -91 35.5 -173.5t95 -142t142 -95t173.5 -35.5t173.5 35.5t142 95t95 142t35.5 173.5t-35.5 173.5t-95 142t-142 95t-173.5 35.5zM544 76q0 -13 -9.5 -22.5t-22.5 -9.5t-22.5 9.5t-9.5 22.5v288
q0 13 9.5 22.5t22.5 9.5t22.5 -9.5t9.5 -22.5v-288zM512 460q-20 0 -34 14t-14 34t14 34t34 14t34 -14t14 -34t-14 -34t-34 -14z" />
    <glyph glyph-name="uniE6E5" unicode="&#xe6e5;" 
d="M512 -146q-91 0 -173.5 35.5t-142 95t-95 142t-35.5 173.5q0 61 16 118.5t45 106.5t70 90t90 70t106.5 45t118.5 16q91 0 173.5 -35.5t142 -95t95 -142t35.5 -173.5q0 -61 -16 -118.5t-45 -106.5t-70 -90t-90 -70t-106.5 -45t-118.5 -16zM512 682q-104 0 -192 -51
t-139 -139t-51 -192t51 -192t139 -139t192 -51t192 51t139 139t51 192t-51 192t-139 139t-192 51zM512 508zM464 508q0 20 14 34t34 14t34 -14t14 -34t-14 -34t-34 -14t-34 14t-14 34zM512 44q-13 0 -22.5 9.5t-9.5 22.5v288q0 13 9.5 22.5t22.5 9.5t22.5 -9.5t9.5 -22.5
v-288q0 -13 -9.5 -22.5t-22.5 -9.5z" />
    <glyph glyph-name="uniE6E6" unicode="&#xe6e6;" 
d="M96 652q-13 0 -22.5 -9.5t-9.5 -22.5v-640q0 -13 9.5 -22.5t22.5 -9.5t22.5 9.5t9.5 22.5v640q0 13 -9.5 22.5t-22.5 9.5zM224 652q-13 0 -22.5 -9.5t-9.5 -22.5v-640q0 -13 9.5 -22.5t22.5 -9.5t22.5 9.5t9.5 22.5v640q0 13 -9.5 22.5t-22.5 9.5zM672 652
q-13 0 -22.5 -9.5t-9.5 -22.5v-640q0 -13 9.5 -22.5t22.5 -9.5t22.5 9.5t9.5 22.5v640q0 13 -9.5 22.5t-22.5 9.5zM928 652q-13 0 -22.5 -9.5t-9.5 -22.5v-640q0 -13 9.5 -22.5t22.5 -9.5t22.5 9.5t9.5 22.5v640q0 13 -9.5 22.5t-22.5 9.5zM352 652q-13 0 -22.5 -9.5
t-9.5 -22.5v-416q0 -13 9.5 -22.5t22.5 -9.5t22.5 9.5t9.5 22.5v416q0 13 -9.5 22.5t-22.5 9.5zM480 652q-13 0 -22.5 -9.5t-9.5 -22.5v-416q0 -13 9.5 -22.5t22.5 -9.5t22.5 9.5t9.5 22.5v416q0 13 -9.5 22.5t-22.5 9.5zM800 652q-13 0 -22.5 -9.5t-9.5 -22.5v-416
q0 -13 9.5 -22.5t22.5 -9.5t22.5 9.5t9.5 22.5v416q0 13 -9.5 22.5t-22.5 9.5z" />
    <glyph glyph-name="uniE6EA" unicode="&#xe6ea;" 
d="M952 318l-384 419q-15 17 -35.5 9t-20.5 -30v-225q-56 -4 -107 -20t-96 -43.5t-84 -67.5t-72 -91q-19 -30 -35 -64t-25 -58.5t-16.5 -49t-9 -33.5t-2.5 -14q-5 -23 15 -34t37 4q5 5 19 15.5t52.5 33.5t82 42.5t109 36.5t132.5 20v-284q0 -22 20 -30q6 -2 12 -2
q14 0 23 10l384 413q9 9 9 21.5t-8 21.5z" />
    <glyph glyph-name="uniE6EB" unicode="&#xe6eb;" 
d="M544 -148q-3 0 -6 0.5t-6 1.5q-9 4 -14.5 12t-5.5 18v287q-195 -9 -357 -122q-24 -17 -37 -28q-18 -16 -38 -5t-15 34q2 14 7.5 36t28 78.5t52.5 104.5q69 109 168.5 166t222.5 57q9 0 16 -4.5t11.5 -11.5t4.5 -16q0 -13 -9.5 -22.5t-22.5 -9.5q-68 0 -128 -21
t-100.5 -52t-74.5 -74.5t-53 -80t-35 -75.5q182 111 391 111q13 0 22.5 -9.5t9.5 -22.5v-238l308 330l-308 335v-43q0 -13 -9.5 -22.5t-22.5 -9.5t-22.5 9.5t-9.5 22.5v125q0 21 20.5 29t35.5 -8l384 -416q8 -9 8 -21.5t-9 -21.5l-384 -413q-9 -10 -23 -10z" />
    <glyph glyph-name="uniE6EC" unicode="&#xe6ec;" 
d="M512 748q-185 0 -316.5 -131.5t-131.5 -316.5t131.5 -316.5t316.5 -131.5t316.5 131.5t131.5 316.5t-131.5 316.5t-316.5 131.5zM641 236q13 0 22.5 -9.5t9.5 -22.5t-9.5 -22.5t-22.5 -9.5h-97v-95q0 -13 -9.5 -22.5t-22.5 -9.5t-22.5 9.5t-9.5 22.5v95h-95
q-3 0 -6.5 0.5t-6 2t-5.5 3t-5 4t-4 4.5l-2 6q-2 2 -2.5 5.5t-0.5 6.5q0 13 9.5 22.5t22.5 9.5h95v64h-95q-4 0 -7.5 1t-6.5 2.5t-6 3.5t-5 5t-3.5 6t-2.5 6.5t-1 7.5q0 13 9.5 22.5t22.5 9.5h95v20l-118 118q-10 10 -9.5 23t9.5 23q6 6 14.5 8t16.5 0t14 -8l108 -108
l101 107q10 10 23 10t22.5 -9t10 -22t-9.5 -23l-118 -124v-15h97q13 0 22.5 -9.5t9.5 -22.5t-9.5 -22.5t-22.5 -9.5h-97v-64h97z" />
    <glyph glyph-name="uniE6ED" unicode="&#xe6ed;" 
d="M512 748q-185 0 -316.5 -131.5t-131.5 -316.5t131.5 -316.5t316.5 -131.5t316.5 131.5t131.5 316.5t-131.5 316.5t-316.5 131.5zM512 -84q-159 0 -271.5 112.5t-112.5 271.5t112.5 271.5t271.5 112.5t271.5 -112.5t112.5 -271.5t-112.5 -271.5t-271.5 -112.5zM641 300
q13 0 22.5 9.5t9.5 22.5t-9.5 22.5t-22.5 9.5h-97v15l119 124q9 10 8.5 23t-9.5 22q-5 5 -11 7t-12 2t-12 -2.5t-10 -7.5l-102 -107l-107 108q-10 9 -23 9t-23 -9q-4 -5 -6.5 -11t-3 -12t2 -12t7.5 -11l118 -118v-20h-95q-13 0 -22.5 -9.5t-9.5 -22.5t9.5 -22.5t22.5 -9.5
h95v-64h-95q-13 0 -22.5 -9.5t-9.5 -22.5t9.5 -22.5t22.5 -9.5h95v-95q0 -13 9.5 -22.5t22.5 -9.5t22.5 9.5t9.5 22.5v95h97q13 0 22.5 9.5t9.5 22.5t-9.5 22.5t-22.5 9.5h-97v64h97z" />
    <glyph glyph-name="uniE6EE" unicode="&#xe6ee;" 
d="M859 -52h-694q-42 0 -71.5 29.5t-29.5 71.5v502q0 42 29.5 71.5t71.5 29.5h694q16 0 31.5 -5t28 -14.5t22 -22t14.5 -28t5 -31.5v-502q0 -42 -29.5 -71.5t-71.5 -29.5zM165 588q-15 0 -26 -11t-11 -26v-502q0 -10 5 -18.5t13.5 -13.5t18.5 -5h694q15 0 26 11t11 26v502
q0 15 -11 26t-26 11h-694zM800 396h-576q-13 0 -22.5 9.5t-9.5 22.5t9.5 22.5t22.5 9.5h576q13 0 22.5 -9.5t9.5 -22.5t-9.5 -22.5t-22.5 -9.5zM320 76h-96q-13 0 -22.5 9.5t-9.5 22.5t9.5 22.5t22.5 9.5h96q13 0 22.5 -9.5t9.5 -22.5t-9.5 -22.5t-22.5 -9.5z" />
    <glyph glyph-name="uniE6EF" unicode="&#xe6ef;" 
d="M512 106q-79 0 -135.5 56.5t-56.5 135.5v256q0 52 25.5 96.5t70 70t96.5 25.5q79 0 135.5 -56.5t56.5 -135.5v-256q0 -89 -69 -147q-54 -44 -123 -45zM512 682q-53 0 -90.5 -37.5t-37.5 -90.5v-256q0 -53 37.5 -90.5t90.5 -37.5t90.5 37.5t37.5 90.5v256q0 53 -37.5 90.5
t-90.5 37.5zM864 332v128q0 13 -9.5 22.5t-22.5 9.5t-22.5 -9.5t-9.5 -22.5v-128q0 -79 -38.5 -145.5t-105 -105.5t-144.5 -39q-119 0 -203.5 85t-84.5 205v128q0 13 -9.5 22.5t-22.5 9.5t-22.5 -9.5t-9.5 -22.5v-128q0 -90 42.5 -168.5t116 -127.5t161.5 -57v-63h-192
q-13 0 -22.5 -9.5t-9.5 -22.5t9.5 -22.5t22.5 -9.5h448q13 0 22.5 9.5t9.5 22.5t-9.5 22.5t-22.5 9.5h-192v63q135 13 227.5 114t92.5 239z" />
    <glyph glyph-name="uniE6F0" unicode="&#xe6f0;" 
d="M512 106q79 0 135.5 56.5t56.5 135.5v256q0 79 -56.5 135.5t-135.5 56.5t-135.5 -56.5t-56.5 -135.5v-256q0 -79 56.5 -135.5t135.5 -56.5zM864 332v128q0 13 -9.5 22.5t-22.5 9.5t-22.5 -9.5t-9.5 -22.5v-128q0 -79 -38.5 -145.5t-105 -105.5t-144.5 -39
q-119 0 -203.5 85t-84.5 205v128q0 13 -9.5 22.5t-22.5 9.5t-22.5 -9.5t-9.5 -22.5v-128q0 -90 42.5 -168.5t116 -127.5t161.5 -57v-63h-192q-13 0 -22.5 -9.5t-9.5 -22.5t9.5 -22.5t22.5 -9.5h448q13 0 22.5 9.5t9.5 22.5t-9.5 22.5t-22.5 9.5h-192v63q135 13 227.5 114
t92.5 239z" />
  </font>
</defs>
</svg>
